M48
;DRILL file {KiCad 4.0.4-stable} date 07/19/17 07:42:37
;FORMAT={-:-/ absolute / inch / decimal}
FMAT,2
INCH,TZ
T1C0.030
T2C0.035
T3C0.045
T4C0.055
T5C0.095
T6C0.138
%
G90
G05
M72
T1
X4.45Y-2.4909
X4.45Y-2.6091
X4.45Y-3.1819
X4.45Y-3.3
X4.45Y-3.4181
X4.45Y-3.9909
X4.45Y-4.1091
X4.5681Y-2.4909
X4.5681Y-2.6091
X4.6Y-2.15
X4.6Y-2.25
X4.77Y-3.05
X4.77Y-3.25
X4.825Y-2.175
X4.825Y-2.675
X4.85Y-3.85
X4.85Y-3.95
X4.925Y-2.175
X4.925Y-2.675
X5.025Y-2.175
X5.025Y-2.675
X5.075Y-2.825
X5.075Y-2.925
X5.075Y-3.125
X5.075Y-3.225
X5.125Y-2.175
X5.125Y-2.675
X5.225Y-2.175
X5.225Y-2.675
X5.25Y-2.85
X5.25Y-3.25
X5.325Y-2.175
X5.325Y-2.675
X5.4Y-2.85
X5.4Y-3.25
X5.425Y-2.175
X5.425Y-2.675
X5.525Y-2.175
X5.525Y-2.675
X5.55Y-2.85
X5.55Y-3.25
X5.7Y-2.85
X5.7Y-3.25
X5.7Y-3.85
X5.7Y-4.05
X5.8Y-3.55
X6.Y-3.55
X6.15Y-3.6
X6.25Y-3.6
X6.4Y-3.6
X6.6Y-3.6
T2
X4.7Y-3.75
X4.7Y-4.05
X5.5Y-3.775
X5.5Y-4.125
X5.9Y-3.75
X5.9Y-4.15
X6.075Y-3.4
X6.425Y-3.4
T3
X6.05Y-3.85
X6.05Y-3.95
X6.05Y-4.05
T4
X5.05Y-3.65
X5.05Y-4.25
X5.3Y-3.65
X5.3Y-4.25
T5
X4.2799Y-2.4059
X4.2799Y-2.6941
X4.2799Y-3.0969
X4.2799Y-3.5031
X4.2799Y-3.9059
X4.2799Y-4.1941
T6
X6.7309Y-3.95
T0
M30
