G04 #@! TF.FileFunction,Other,Fab,Bot*
%FSLAX46Y46*%
G04 Gerber Fmt 4.6, Leading zero omitted, Abs format (unit mm)*
G04 Created by KiCad (PCBNEW 4.0.4-stable) date 07/17/17 19:23:20*
%MOMM*%
%LPD*%
G01*
G04 APERTURE LIST*
%ADD10C,0.100000*%
%ADD11C,0.150000*%
G04 APERTURE END LIST*
D10*
X167365000Y-105330000D02*
X173765000Y-105330000D01*
X173765000Y-105330000D02*
X173765000Y-95330000D01*
X173765000Y-95330000D02*
X167365000Y-95330000D01*
X167365000Y-95330000D02*
X167365000Y-105330000D01*
X158115000Y-105330000D02*
X167365000Y-105330000D01*
X167365000Y-105330000D02*
X167365000Y-95330000D01*
X167365000Y-95330000D02*
X158115000Y-95330000D01*
X158115000Y-95330000D02*
X158115000Y-105330000D01*
X158115000Y-102870000D02*
X154305000Y-102870000D01*
X158115000Y-100330000D02*
X154305000Y-100330000D01*
X158115000Y-97790000D02*
X154305000Y-97790000D01*
X172815000Y-100330000D02*
G75*
G03X172815000Y-100330000I-1850000J0D01*
G01*
D11*
X164282381Y-95449048D02*
X164282381Y-94972857D01*
X163282381Y-94972857D01*
X164282381Y-95782381D02*
X163282381Y-95782381D01*
X163996667Y-96115715D01*
X163282381Y-96449048D01*
X164282381Y-96449048D01*
X163377619Y-96877619D02*
X163330000Y-96925238D01*
X163282381Y-97020476D01*
X163282381Y-97258572D01*
X163330000Y-97353810D01*
X163377619Y-97401429D01*
X163472857Y-97449048D01*
X163568095Y-97449048D01*
X163710952Y-97401429D01*
X164282381Y-96830000D01*
X164282381Y-97449048D01*
X164282381Y-97925238D02*
X164282381Y-98115714D01*
X164234762Y-98210953D01*
X164187143Y-98258572D01*
X164044286Y-98353810D01*
X163853810Y-98401429D01*
X163472857Y-98401429D01*
X163377619Y-98353810D01*
X163330000Y-98306191D01*
X163282381Y-98210953D01*
X163282381Y-98020476D01*
X163330000Y-97925238D01*
X163377619Y-97877619D01*
X163472857Y-97830000D01*
X163710952Y-97830000D01*
X163806190Y-97877619D01*
X163853810Y-97925238D01*
X163901429Y-98020476D01*
X163901429Y-98210953D01*
X163853810Y-98306191D01*
X163806190Y-98353810D01*
X163710952Y-98401429D01*
X163282381Y-98734762D02*
X163282381Y-99353810D01*
X163663333Y-99020476D01*
X163663333Y-99163334D01*
X163710952Y-99258572D01*
X163758571Y-99306191D01*
X163853810Y-99353810D01*
X164091905Y-99353810D01*
X164187143Y-99306191D01*
X164234762Y-99258572D01*
X164282381Y-99163334D01*
X164282381Y-98877619D01*
X164234762Y-98782381D01*
X164187143Y-98734762D01*
X164282381Y-100306191D02*
X164282381Y-99734762D01*
X164282381Y-100020476D02*
X163282381Y-100020476D01*
X163425238Y-99925238D01*
X163520476Y-99830000D01*
X163568095Y-99734762D01*
X163996667Y-100687143D02*
X163996667Y-101163334D01*
X164282381Y-100591905D02*
X163282381Y-100925238D01*
X164282381Y-101258572D01*
X163282381Y-101496667D02*
X163282381Y-102163334D01*
X164282381Y-101496667D01*
X164282381Y-102163334D01*
X163901429Y-102544286D02*
X163901429Y-103306191D01*
X163282381Y-104258572D02*
X163282381Y-103782381D01*
X163758571Y-103734762D01*
X163710952Y-103782381D01*
X163663333Y-103877619D01*
X163663333Y-104115715D01*
X163710952Y-104210953D01*
X163758571Y-104258572D01*
X163853810Y-104306191D01*
X164091905Y-104306191D01*
X164187143Y-104258572D01*
X164234762Y-104210953D01*
X164282381Y-104115715D01*
X164282381Y-103877619D01*
X164234762Y-103782381D01*
X164187143Y-103734762D01*
X164187143Y-104734762D02*
X164234762Y-104782381D01*
X164282381Y-104734762D01*
X164234762Y-104687143D01*
X164187143Y-104734762D01*
X164282381Y-104734762D01*
X163282381Y-105401428D02*
X163282381Y-105496667D01*
X163330000Y-105591905D01*
X163377619Y-105639524D01*
X163472857Y-105687143D01*
X163663333Y-105734762D01*
X163901429Y-105734762D01*
X164091905Y-105687143D01*
X164187143Y-105639524D01*
X164234762Y-105591905D01*
X164282381Y-105496667D01*
X164282381Y-105401428D01*
X164234762Y-105306190D01*
X164187143Y-105258571D01*
X164091905Y-105210952D01*
X163901429Y-105163333D01*
X163663333Y-105163333D01*
X163472857Y-105210952D01*
X163377619Y-105258571D01*
X163330000Y-105306190D01*
X163282381Y-105401428D01*
X174337381Y-99568095D02*
X175146905Y-99568095D01*
X175242143Y-99615714D01*
X175289762Y-99663333D01*
X175337381Y-99758571D01*
X175337381Y-99949048D01*
X175289762Y-100044286D01*
X175242143Y-100091905D01*
X175146905Y-100139524D01*
X174337381Y-100139524D01*
X174432619Y-100568095D02*
X174385000Y-100615714D01*
X174337381Y-100710952D01*
X174337381Y-100949048D01*
X174385000Y-101044286D01*
X174432619Y-101091905D01*
X174527857Y-101139524D01*
X174623095Y-101139524D01*
X174765952Y-101091905D01*
X175337381Y-100520476D01*
X175337381Y-101139524D01*
M02*
