G04 #@! TF.FileFunction,Copper,L1,Top,Signal*
%FSLAX46Y46*%
G04 Gerber Fmt 4.6, Leading zero omitted, Abs format (unit mm)*
G04 Created by KiCad (PCBNEW 4.0.4-stable) date 07/19/17 07:42:17*
%MOMM*%
%LPD*%
G01*
G04 APERTURE LIST*
%ADD10C,0.100000*%
%ADD11R,1.524000X1.524000*%
%ADD12C,1.524000*%
%ADD13C,3.048000*%
%ADD14O,3.500000X3.500000*%
%ADD15O,2.286000X1.778000*%
%ADD16R,2.286000X1.778000*%
%ADD17R,2.032000X2.032000*%
%ADD18C,2.032000*%
%ADD19C,0.800000*%
%ADD20C,0.600000*%
G04 APERTURE END LIST*
D10*
D11*
X113030000Y-86820000D03*
D12*
X113030000Y-80820000D03*
D13*
X108710000Y-88980000D03*
X108710000Y-78660000D03*
D12*
X113030000Y-83820000D03*
D11*
X113030000Y-66270000D03*
D12*
X113030000Y-63270000D03*
D13*
X108710000Y-68430000D03*
X108710000Y-61110000D03*
D12*
X116030000Y-66270000D03*
X116030000Y-63270000D03*
D11*
X113030000Y-104370000D03*
D12*
X113030000Y-101370000D03*
D13*
X108710000Y-106530000D03*
X108710000Y-99210000D03*
D14*
X170965000Y-100330000D03*
D15*
X153670000Y-97790000D03*
X153670000Y-100330000D03*
D16*
X153670000Y-102870000D03*
D11*
X163195000Y-86360000D03*
D12*
X154305000Y-86360000D03*
D11*
X139700000Y-104775000D03*
D12*
X139700000Y-95885000D03*
X123190000Y-100330000D03*
D11*
X123190000Y-97790000D03*
D12*
X116840000Y-54610000D03*
D11*
X116840000Y-57150000D03*
X144780000Y-102870000D03*
D12*
X144780000Y-97790000D03*
D11*
X147320000Y-90170000D03*
D12*
X152400000Y-90170000D03*
X156210000Y-91440000D03*
D11*
X158750000Y-91440000D03*
D12*
X128905000Y-81915000D03*
D11*
X128905000Y-79375000D03*
D12*
X128905000Y-71755000D03*
D11*
X128905000Y-74295000D03*
X121158000Y-82550000D03*
D12*
X121158000Y-77470000D03*
D17*
X128270000Y-92710000D03*
D18*
X128270000Y-107950000D03*
D17*
X134620000Y-107950000D03*
D18*
X134620000Y-92710000D03*
D11*
X149860000Y-105410000D03*
D12*
X149860000Y-95250000D03*
D11*
X162560000Y-91440000D03*
D12*
X167640000Y-91440000D03*
D11*
X119380000Y-95250000D03*
D12*
X119380000Y-102870000D03*
D11*
X144780000Y-82550000D03*
D12*
X144780000Y-72390000D03*
D11*
X140970000Y-82550000D03*
D12*
X140970000Y-72390000D03*
D11*
X137160000Y-82550000D03*
D12*
X137160000Y-72390000D03*
D11*
X133350000Y-82550000D03*
D12*
X133350000Y-72390000D03*
D11*
X140335000Y-55245000D03*
D12*
X140335000Y-67945000D03*
X132715000Y-55245000D03*
X135255000Y-55245000D03*
X137795000Y-55245000D03*
X132715000Y-67945000D03*
X135255000Y-67945000D03*
X137795000Y-67945000D03*
X130175000Y-67945000D03*
X127635000Y-67945000D03*
X125095000Y-67945000D03*
X130175000Y-55245000D03*
X127635000Y-55245000D03*
X125095000Y-55245000D03*
X122555000Y-55245000D03*
X122555000Y-67945000D03*
D19*
X128270000Y-92710000D02*
X134620000Y-92710000D01*
D20*
X113030000Y-104370000D02*
X113308000Y-104370000D01*
D19*
X113308000Y-104370000D02*
X119380000Y-98298000D01*
X119380000Y-98298000D02*
X119380000Y-95250000D01*
X119380000Y-95250000D02*
X121920000Y-97790000D01*
X121920000Y-97790000D02*
X123190000Y-97790000D01*
X123190000Y-97790000D02*
X128270000Y-92710000D01*
X145034000Y-55118000D02*
X175260000Y-85344000D01*
X124968000Y-52578000D02*
X142494000Y-52578000D01*
X142494000Y-52578000D02*
X145034000Y-55118000D01*
X122555000Y-54991000D02*
X124968000Y-52578000D01*
X152654000Y-107696000D02*
X150368000Y-105410000D01*
X173736000Y-107696000D02*
X152654000Y-107696000D01*
X175260000Y-106172000D02*
X173736000Y-107696000D01*
X175260000Y-85344000D02*
X175260000Y-106172000D01*
D20*
X150368000Y-105410000D02*
X149860000Y-105410000D01*
X122555000Y-55245000D02*
X122555000Y-54991000D01*
D19*
X116840000Y-57150000D02*
X120650000Y-57150000D01*
X120650000Y-57150000D02*
X122555000Y-55245000D01*
X144780000Y-102870000D02*
X147320000Y-102870000D01*
X147320000Y-102870000D02*
X149860000Y-105410000D01*
X149860000Y-105410000D02*
X151130000Y-105410000D01*
X134620000Y-107950000D02*
X136525000Y-107950000D01*
X136525000Y-107950000D02*
X139700000Y-104775000D01*
X139700000Y-104775000D02*
X142875000Y-104775000D01*
D20*
X142875000Y-104775000D02*
X144780000Y-102870000D01*
D19*
X151130000Y-105410000D02*
X153670000Y-102870000D01*
X153670000Y-97790000D02*
X153670000Y-96520000D01*
X153670000Y-97790000D02*
X152400000Y-97790000D01*
X158750000Y-91440000D02*
X162560000Y-91440000D01*
X153670000Y-96520000D02*
X158750000Y-91440000D01*
X152400000Y-97790000D02*
X149860000Y-95250000D01*
X149860000Y-95250000D02*
X149860000Y-92710000D01*
X149860000Y-92710000D02*
X147320000Y-90170000D01*
X128905000Y-79375000D02*
X114475000Y-79375000D01*
X114475000Y-79375000D02*
X113030000Y-80820000D01*
X128905000Y-79375000D02*
X137795000Y-79375000D01*
X137795000Y-79375000D02*
X144780000Y-72390000D01*
X144780000Y-72390000D02*
X140335000Y-67945000D01*
X128905000Y-74295000D02*
X139065000Y-74295000D01*
X139065000Y-74295000D02*
X140970000Y-72390000D01*
X137795000Y-67945000D02*
X137795000Y-69215000D01*
X137795000Y-69215000D02*
X140970000Y-72390000D01*
D20*
X163195000Y-86360000D02*
X163195000Y-86995000D01*
D19*
X163195000Y-86995000D02*
X167640000Y-91440000D01*
X144780000Y-82550000D02*
X159385000Y-82550000D01*
X159385000Y-82550000D02*
X163195000Y-86360000D01*
X140970000Y-82550000D02*
X144780000Y-82550000D01*
X133350000Y-82550000D02*
X137160000Y-82550000D01*
X137160000Y-82550000D02*
X140970000Y-82550000D01*
X137795000Y-55245000D02*
X137795000Y-62357000D01*
X137795000Y-62357000D02*
X147320000Y-71882000D01*
X147320000Y-71882000D02*
X147320000Y-80010000D01*
X147320000Y-80010000D02*
X144780000Y-82550000D01*
X133350000Y-82550000D02*
X131826000Y-84074000D01*
X122682000Y-84074000D02*
X121158000Y-82550000D01*
X131826000Y-84074000D02*
X122682000Y-84074000D01*
X113030000Y-66270000D02*
X113030000Y-67056000D01*
X121920000Y-66040000D02*
X132715000Y-55245000D01*
D20*
X121158000Y-66040000D02*
X121920000Y-66040000D01*
D19*
X119126000Y-68072000D02*
X121158000Y-66040000D01*
X114046000Y-68072000D02*
X119126000Y-68072000D01*
X113030000Y-67056000D02*
X114046000Y-68072000D01*
D20*
X113030000Y-63270000D02*
X113030000Y-63246000D01*
D19*
X113030000Y-63246000D02*
X114808000Y-61468000D01*
X121412000Y-61468000D02*
X127635000Y-55245000D01*
X114808000Y-61468000D02*
X121412000Y-61468000D01*
D20*
X113030000Y-63270000D02*
X113260000Y-63270000D01*
X116030000Y-66270000D02*
X116102000Y-66270000D01*
D19*
X116102000Y-66270000D02*
X117602000Y-64770000D01*
X117602000Y-64770000D02*
X120650000Y-64770000D01*
X120650000Y-64770000D02*
X130175000Y-55245000D01*
X130175000Y-55245000D02*
X130175000Y-55499000D01*
X135255000Y-67945000D02*
X135255000Y-70485000D01*
X135255000Y-70485000D02*
X137160000Y-72390000D01*
X132715000Y-67945000D02*
X132715000Y-71755000D01*
X132715000Y-71755000D02*
X133350000Y-72390000D01*
M02*
