G04 #@! TF.FileFunction,Copper,L2,Bot,Signal*
%FSLAX46Y46*%
G04 Gerber Fmt 4.6, Leading zero omitted, Abs format (unit mm)*
G04 Created by KiCad (PCBNEW 4.0.4-stable) date 07/19/17 07:42:17*
%MOMM*%
%LPD*%
G01*
G04 APERTURE LIST*
%ADD10C,0.100000*%
%ADD11R,1.524000X1.524000*%
%ADD12C,1.524000*%
%ADD13C,3.048000*%
%ADD14O,3.500000X3.500000*%
%ADD15O,2.286000X1.778000*%
%ADD16R,2.286000X1.778000*%
%ADD17R,2.032000X2.032000*%
%ADD18C,2.032000*%
%ADD19C,0.800000*%
%ADD20C,0.600000*%
%ADD21C,0.254000*%
G04 APERTURE END LIST*
D10*
D11*
X113030000Y-86820000D03*
D12*
X113030000Y-80820000D03*
D13*
X108710000Y-88980000D03*
X108710000Y-78660000D03*
D12*
X113030000Y-83820000D03*
D11*
X113030000Y-66270000D03*
D12*
X113030000Y-63270000D03*
D13*
X108710000Y-68430000D03*
X108710000Y-61110000D03*
D12*
X116030000Y-66270000D03*
X116030000Y-63270000D03*
D11*
X113030000Y-104370000D03*
D12*
X113030000Y-101370000D03*
D13*
X108710000Y-106530000D03*
X108710000Y-99210000D03*
D14*
X170965000Y-100330000D03*
D15*
X153670000Y-97790000D03*
X153670000Y-100330000D03*
D16*
X153670000Y-102870000D03*
D11*
X163195000Y-86360000D03*
D12*
X154305000Y-86360000D03*
D11*
X139700000Y-104775000D03*
D12*
X139700000Y-95885000D03*
X123190000Y-100330000D03*
D11*
X123190000Y-97790000D03*
D12*
X116840000Y-54610000D03*
D11*
X116840000Y-57150000D03*
X144780000Y-102870000D03*
D12*
X144780000Y-97790000D03*
D11*
X147320000Y-90170000D03*
D12*
X152400000Y-90170000D03*
X156210000Y-91440000D03*
D11*
X158750000Y-91440000D03*
D12*
X128905000Y-81915000D03*
D11*
X128905000Y-79375000D03*
D12*
X128905000Y-71755000D03*
D11*
X128905000Y-74295000D03*
X121158000Y-82550000D03*
D12*
X121158000Y-77470000D03*
D17*
X128270000Y-92710000D03*
D18*
X128270000Y-107950000D03*
D17*
X134620000Y-107950000D03*
D18*
X134620000Y-92710000D03*
D11*
X149860000Y-105410000D03*
D12*
X149860000Y-95250000D03*
D11*
X162560000Y-91440000D03*
D12*
X167640000Y-91440000D03*
D11*
X119380000Y-95250000D03*
D12*
X119380000Y-102870000D03*
D11*
X144780000Y-82550000D03*
D12*
X144780000Y-72390000D03*
D11*
X140970000Y-82550000D03*
D12*
X140970000Y-72390000D03*
D11*
X137160000Y-82550000D03*
D12*
X137160000Y-72390000D03*
D11*
X133350000Y-82550000D03*
D12*
X133350000Y-72390000D03*
D11*
X140335000Y-55245000D03*
D12*
X140335000Y-67945000D03*
X132715000Y-55245000D03*
X135255000Y-55245000D03*
X137795000Y-55245000D03*
X132715000Y-67945000D03*
X135255000Y-67945000D03*
X137795000Y-67945000D03*
X130175000Y-67945000D03*
X127635000Y-67945000D03*
X125095000Y-67945000D03*
X130175000Y-55245000D03*
X127635000Y-55245000D03*
X125095000Y-55245000D03*
X122555000Y-55245000D03*
X122555000Y-67945000D03*
D19*
X128905000Y-74295000D02*
X126238000Y-76962000D01*
X121206000Y-86820000D02*
X113030000Y-86820000D01*
X126238000Y-81788000D02*
X121206000Y-86820000D01*
X126238000Y-76962000D02*
X126238000Y-81788000D01*
D20*
X135255000Y-55245000D02*
X135255000Y-55499000D01*
D19*
X135255000Y-55499000D02*
X127484000Y-63270000D01*
X127484000Y-63270000D02*
X116030000Y-63270000D01*
D21*
G36*
X232029000Y-117983000D02*
X107315000Y-117983000D01*
X107315000Y-109114107D01*
X127285498Y-109114107D01*
X127386120Y-109382622D01*
X128001642Y-109611816D01*
X128658019Y-109588014D01*
X129153880Y-109382622D01*
X129254502Y-109114107D01*
X128270000Y-108129605D01*
X127285498Y-109114107D01*
X107315000Y-109114107D01*
X107315000Y-108188518D01*
X107485428Y-108359244D01*
X108278664Y-108688624D01*
X109137567Y-108689374D01*
X109931377Y-108361378D01*
X110539244Y-107754572D01*
X110569527Y-107681642D01*
X126608184Y-107681642D01*
X126631986Y-108338019D01*
X126837378Y-108833880D01*
X127105893Y-108934502D01*
X128090395Y-107950000D01*
X128449605Y-107950000D01*
X129434107Y-108934502D01*
X129702622Y-108833880D01*
X129931816Y-108218358D01*
X129908014Y-107561981D01*
X129702622Y-107066120D01*
X129434107Y-106965498D01*
X128449605Y-107950000D01*
X128090395Y-107950000D01*
X127105893Y-106965498D01*
X126837378Y-107066120D01*
X126608184Y-107681642D01*
X110569527Y-107681642D01*
X110868624Y-106961336D01*
X110868777Y-106785893D01*
X127285498Y-106785893D01*
X128270000Y-107770395D01*
X129106395Y-106934000D01*
X132956560Y-106934000D01*
X132956560Y-108966000D01*
X133000838Y-109201317D01*
X133139910Y-109417441D01*
X133352110Y-109562431D01*
X133604000Y-109613440D01*
X135636000Y-109613440D01*
X135871317Y-109569162D01*
X136087441Y-109430090D01*
X136232431Y-109217890D01*
X136283440Y-108966000D01*
X136283440Y-106934000D01*
X136239162Y-106698683D01*
X136100090Y-106482559D01*
X135887890Y-106337569D01*
X135636000Y-106286560D01*
X133604000Y-106286560D01*
X133368683Y-106330838D01*
X133152559Y-106469910D01*
X133007569Y-106682110D01*
X132956560Y-106934000D01*
X129106395Y-106934000D01*
X129254502Y-106785893D01*
X129153880Y-106517378D01*
X128538358Y-106288184D01*
X127881981Y-106311986D01*
X127386120Y-106517378D01*
X127285498Y-106785893D01*
X110868777Y-106785893D01*
X110869374Y-106102433D01*
X110541378Y-105308623D01*
X109934572Y-104700756D01*
X109141336Y-104371376D01*
X108282433Y-104370626D01*
X107488623Y-104698622D01*
X107315000Y-104871942D01*
X107315000Y-103608000D01*
X111620560Y-103608000D01*
X111620560Y-105132000D01*
X111664838Y-105367317D01*
X111803910Y-105583441D01*
X112016110Y-105728431D01*
X112268000Y-105779440D01*
X113792000Y-105779440D01*
X114027317Y-105735162D01*
X114243441Y-105596090D01*
X114388431Y-105383890D01*
X114439440Y-105132000D01*
X114439440Y-103850213D01*
X118579392Y-103850213D01*
X118648857Y-104092397D01*
X119172302Y-104279144D01*
X119727368Y-104251362D01*
X120111143Y-104092397D01*
X120133916Y-104013000D01*
X138290560Y-104013000D01*
X138290560Y-105537000D01*
X138334838Y-105772317D01*
X138473910Y-105988441D01*
X138686110Y-106133431D01*
X138938000Y-106184440D01*
X140462000Y-106184440D01*
X140697317Y-106140162D01*
X140913441Y-106001090D01*
X141058431Y-105788890D01*
X141109440Y-105537000D01*
X141109440Y-104648000D01*
X148450560Y-104648000D01*
X148450560Y-106172000D01*
X148494838Y-106407317D01*
X148633910Y-106623441D01*
X148846110Y-106768431D01*
X149098000Y-106819440D01*
X150622000Y-106819440D01*
X150857317Y-106775162D01*
X151073441Y-106636090D01*
X151218431Y-106423890D01*
X151269440Y-106172000D01*
X151269440Y-104648000D01*
X151225162Y-104412683D01*
X151086090Y-104196559D01*
X150873890Y-104051569D01*
X150622000Y-104000560D01*
X149098000Y-104000560D01*
X148862683Y-104044838D01*
X148646559Y-104183910D01*
X148501569Y-104396110D01*
X148450560Y-104648000D01*
X141109440Y-104648000D01*
X141109440Y-104013000D01*
X141065162Y-103777683D01*
X140926090Y-103561559D01*
X140713890Y-103416569D01*
X140462000Y-103365560D01*
X138938000Y-103365560D01*
X138702683Y-103409838D01*
X138486559Y-103548910D01*
X138341569Y-103761110D01*
X138290560Y-104013000D01*
X120133916Y-104013000D01*
X120180608Y-103850213D01*
X119380000Y-103049605D01*
X118579392Y-103850213D01*
X114439440Y-103850213D01*
X114439440Y-103608000D01*
X114395162Y-103372683D01*
X114256090Y-103156559D01*
X114043890Y-103011569D01*
X113792000Y-102960560D01*
X112268000Y-102960560D01*
X112032683Y-103004838D01*
X111816559Y-103143910D01*
X111671569Y-103356110D01*
X111620560Y-103608000D01*
X107315000Y-103608000D01*
X107315000Y-102350213D01*
X112229392Y-102350213D01*
X112298857Y-102592397D01*
X112822302Y-102779144D01*
X113377368Y-102751362D01*
X113592377Y-102662302D01*
X117970856Y-102662302D01*
X117998638Y-103217368D01*
X118157603Y-103601143D01*
X118399787Y-103670608D01*
X119200395Y-102870000D01*
X119559605Y-102870000D01*
X120360213Y-103670608D01*
X120602397Y-103601143D01*
X120789144Y-103077698D01*
X120761362Y-102522632D01*
X120602397Y-102138857D01*
X120494817Y-102108000D01*
X143370560Y-102108000D01*
X143370560Y-103632000D01*
X143414838Y-103867317D01*
X143553910Y-104083441D01*
X143766110Y-104228431D01*
X144018000Y-104279440D01*
X145542000Y-104279440D01*
X145777317Y-104235162D01*
X145993441Y-104096090D01*
X146138431Y-103883890D01*
X146189440Y-103632000D01*
X146189440Y-102108000D01*
X146165544Y-101981000D01*
X151879560Y-101981000D01*
X151879560Y-103759000D01*
X151923838Y-103994317D01*
X152062910Y-104210441D01*
X152275110Y-104355431D01*
X152527000Y-104406440D01*
X154813000Y-104406440D01*
X155048317Y-104362162D01*
X155264441Y-104223090D01*
X155409431Y-104010890D01*
X155460440Y-103759000D01*
X155460440Y-101981000D01*
X155416162Y-101745683D01*
X155277090Y-101529559D01*
X155064890Y-101384569D01*
X155019197Y-101375316D01*
X155091433Y-101317829D01*
X155380593Y-100795878D01*
X155404134Y-100693013D01*
X155283330Y-100457000D01*
X153797000Y-100457000D01*
X153797000Y-100477000D01*
X153543000Y-100477000D01*
X153543000Y-100457000D01*
X152056670Y-100457000D01*
X151935866Y-100693013D01*
X151959407Y-100795878D01*
X152248567Y-101317829D01*
X152317797Y-101372924D01*
X152291683Y-101377838D01*
X152075559Y-101516910D01*
X151930569Y-101729110D01*
X151879560Y-101981000D01*
X146165544Y-101981000D01*
X146145162Y-101872683D01*
X146006090Y-101656559D01*
X145793890Y-101511569D01*
X145542000Y-101460560D01*
X144018000Y-101460560D01*
X143782683Y-101504838D01*
X143566559Y-101643910D01*
X143421569Y-101856110D01*
X143370560Y-102108000D01*
X120494817Y-102108000D01*
X120360213Y-102069392D01*
X119559605Y-102870000D01*
X119200395Y-102870000D01*
X118399787Y-102069392D01*
X118157603Y-102138857D01*
X117970856Y-102662302D01*
X113592377Y-102662302D01*
X113761143Y-102592397D01*
X113830608Y-102350213D01*
X113030000Y-101549605D01*
X112229392Y-102350213D01*
X107315000Y-102350213D01*
X107315000Y-100868518D01*
X107485428Y-101039244D01*
X108278664Y-101368624D01*
X109137567Y-101369374D01*
X109638718Y-101162302D01*
X111620856Y-101162302D01*
X111648638Y-101717368D01*
X111807603Y-102101143D01*
X112049787Y-102170608D01*
X112850395Y-101370000D01*
X113209605Y-101370000D01*
X114010213Y-102170608D01*
X114252397Y-102101143D01*
X114327801Y-101889787D01*
X118579392Y-101889787D01*
X119380000Y-102690395D01*
X120180608Y-101889787D01*
X120111143Y-101647603D01*
X119587698Y-101460856D01*
X119032632Y-101488638D01*
X118648857Y-101647603D01*
X118579392Y-101889787D01*
X114327801Y-101889787D01*
X114439144Y-101577698D01*
X114425756Y-101310213D01*
X122389392Y-101310213D01*
X122458857Y-101552397D01*
X122982302Y-101739144D01*
X123537368Y-101711362D01*
X123921143Y-101552397D01*
X123990608Y-101310213D01*
X123190000Y-100509605D01*
X122389392Y-101310213D01*
X114425756Y-101310213D01*
X114411362Y-101022632D01*
X114252397Y-100638857D01*
X114010213Y-100569392D01*
X113209605Y-101370000D01*
X112850395Y-101370000D01*
X112049787Y-100569392D01*
X111807603Y-100638857D01*
X111620856Y-101162302D01*
X109638718Y-101162302D01*
X109931377Y-101041378D01*
X110539244Y-100434572D01*
X110557840Y-100389787D01*
X112229392Y-100389787D01*
X113030000Y-101190395D01*
X113830608Y-100389787D01*
X113761143Y-100147603D01*
X113690226Y-100122302D01*
X121780856Y-100122302D01*
X121808638Y-100677368D01*
X121967603Y-101061143D01*
X122209787Y-101130608D01*
X123010395Y-100330000D01*
X123369605Y-100330000D01*
X124170213Y-101130608D01*
X124412397Y-101061143D01*
X124599144Y-100537698D01*
X124586410Y-100283275D01*
X168580000Y-100283275D01*
X168580000Y-100376725D01*
X168761547Y-101289425D01*
X169278550Y-102063175D01*
X170052300Y-102580178D01*
X170965000Y-102761725D01*
X171877700Y-102580178D01*
X172651450Y-102063175D01*
X173168453Y-101289425D01*
X173350000Y-100376725D01*
X173350000Y-100283275D01*
X173168453Y-99370575D01*
X172651450Y-98596825D01*
X171877700Y-98079822D01*
X170965000Y-97898275D01*
X170052300Y-98079822D01*
X169278550Y-98596825D01*
X168761547Y-99370575D01*
X168580000Y-100283275D01*
X124586410Y-100283275D01*
X124571362Y-99982632D01*
X124412397Y-99598857D01*
X124170213Y-99529392D01*
X123369605Y-100330000D01*
X123010395Y-100330000D01*
X122209787Y-99529392D01*
X121967603Y-99598857D01*
X121780856Y-100122302D01*
X113690226Y-100122302D01*
X113237698Y-99960856D01*
X112682632Y-99988638D01*
X112298857Y-100147603D01*
X112229392Y-100389787D01*
X110557840Y-100389787D01*
X110868624Y-99641336D01*
X110869374Y-98782433D01*
X110541378Y-97988623D01*
X109934572Y-97380756D01*
X109141336Y-97051376D01*
X108282433Y-97050626D01*
X107488623Y-97378622D01*
X107315000Y-97551942D01*
X107315000Y-97028000D01*
X121780560Y-97028000D01*
X121780560Y-98552000D01*
X121824838Y-98787317D01*
X121963910Y-99003441D01*
X122176110Y-99148431D01*
X122428000Y-99199440D01*
X122432516Y-99199440D01*
X122389392Y-99349787D01*
X123190000Y-100150395D01*
X123990608Y-99349787D01*
X123947484Y-99199440D01*
X123952000Y-99199440D01*
X124187317Y-99155162D01*
X124403441Y-99016090D01*
X124548431Y-98803890D01*
X124555250Y-98770213D01*
X143979392Y-98770213D01*
X144048857Y-99012397D01*
X144572302Y-99199144D01*
X145127368Y-99171362D01*
X145511143Y-99012397D01*
X145580608Y-98770213D01*
X144780000Y-97969605D01*
X143979392Y-98770213D01*
X124555250Y-98770213D01*
X124599440Y-98552000D01*
X124599440Y-97582302D01*
X143370856Y-97582302D01*
X143398638Y-98137368D01*
X143557603Y-98521143D01*
X143799787Y-98590608D01*
X144600395Y-97790000D01*
X144959605Y-97790000D01*
X145760213Y-98590608D01*
X146002397Y-98521143D01*
X146189144Y-97997698D01*
X146178749Y-97790000D01*
X151857167Y-97790000D01*
X151973175Y-98373210D01*
X152303536Y-98867631D01*
X152597794Y-99064248D01*
X152248567Y-99342171D01*
X151959407Y-99864122D01*
X151935866Y-99966987D01*
X152056670Y-100203000D01*
X153543000Y-100203000D01*
X153543000Y-100183000D01*
X153797000Y-100183000D01*
X153797000Y-100203000D01*
X155283330Y-100203000D01*
X155404134Y-99966987D01*
X155380593Y-99864122D01*
X155091433Y-99342171D01*
X154742206Y-99064248D01*
X155036464Y-98867631D01*
X155366825Y-98373210D01*
X155482833Y-97790000D01*
X155366825Y-97206790D01*
X155036464Y-96712369D01*
X154542043Y-96382008D01*
X153958833Y-96266000D01*
X153381167Y-96266000D01*
X152797957Y-96382008D01*
X152303536Y-96712369D01*
X151973175Y-97206790D01*
X151857167Y-97790000D01*
X146178749Y-97790000D01*
X146161362Y-97442632D01*
X146002397Y-97058857D01*
X145760213Y-96989392D01*
X144959605Y-97790000D01*
X144600395Y-97790000D01*
X143799787Y-96989392D01*
X143557603Y-97058857D01*
X143370856Y-97582302D01*
X124599440Y-97582302D01*
X124599440Y-97028000D01*
X124568810Y-96865213D01*
X138899392Y-96865213D01*
X138968857Y-97107397D01*
X139492302Y-97294144D01*
X140047368Y-97266362D01*
X140431143Y-97107397D01*
X140500608Y-96865213D01*
X140445182Y-96809787D01*
X143979392Y-96809787D01*
X144780000Y-97610395D01*
X145580608Y-96809787D01*
X145511143Y-96567603D01*
X144987698Y-96380856D01*
X144432632Y-96408638D01*
X144048857Y-96567603D01*
X143979392Y-96809787D01*
X140445182Y-96809787D01*
X139700000Y-96064605D01*
X138899392Y-96865213D01*
X124568810Y-96865213D01*
X124555162Y-96792683D01*
X124416090Y-96576559D01*
X124203890Y-96431569D01*
X123952000Y-96380560D01*
X122428000Y-96380560D01*
X122192683Y-96424838D01*
X121976559Y-96563910D01*
X121831569Y-96776110D01*
X121780560Y-97028000D01*
X107315000Y-97028000D01*
X107315000Y-94488000D01*
X117970560Y-94488000D01*
X117970560Y-96012000D01*
X118014838Y-96247317D01*
X118153910Y-96463441D01*
X118366110Y-96608431D01*
X118618000Y-96659440D01*
X120142000Y-96659440D01*
X120377317Y-96615162D01*
X120593441Y-96476090D01*
X120738431Y-96263890D01*
X120789440Y-96012000D01*
X120789440Y-95677302D01*
X138290856Y-95677302D01*
X138318638Y-96232368D01*
X138477603Y-96616143D01*
X138719787Y-96685608D01*
X139520395Y-95885000D01*
X139879605Y-95885000D01*
X140680213Y-96685608D01*
X140922397Y-96616143D01*
X141109144Y-96092698D01*
X141081362Y-95537632D01*
X141076818Y-95526661D01*
X148462758Y-95526661D01*
X148674990Y-96040303D01*
X149067630Y-96433629D01*
X149580900Y-96646757D01*
X150136661Y-96647242D01*
X150650303Y-96435010D01*
X151043629Y-96042370D01*
X151256757Y-95529100D01*
X151257242Y-94973339D01*
X151045010Y-94459697D01*
X150652370Y-94066371D01*
X150139100Y-93853243D01*
X149583339Y-93852758D01*
X149069697Y-94064990D01*
X148676371Y-94457630D01*
X148463243Y-94970900D01*
X148462758Y-95526661D01*
X141076818Y-95526661D01*
X140922397Y-95153857D01*
X140680213Y-95084392D01*
X139879605Y-95885000D01*
X139520395Y-95885000D01*
X138719787Y-95084392D01*
X138477603Y-95153857D01*
X138290856Y-95677302D01*
X120789440Y-95677302D01*
X120789440Y-94904787D01*
X138899392Y-94904787D01*
X139700000Y-95705395D01*
X140500608Y-94904787D01*
X140431143Y-94662603D01*
X139907698Y-94475856D01*
X139352632Y-94503638D01*
X138968857Y-94662603D01*
X138899392Y-94904787D01*
X120789440Y-94904787D01*
X120789440Y-94488000D01*
X120745162Y-94252683D01*
X120606090Y-94036559D01*
X120393890Y-93891569D01*
X120142000Y-93840560D01*
X118618000Y-93840560D01*
X118382683Y-93884838D01*
X118166559Y-94023910D01*
X118021569Y-94236110D01*
X117970560Y-94488000D01*
X107315000Y-94488000D01*
X107315000Y-91694000D01*
X126606560Y-91694000D01*
X126606560Y-93726000D01*
X126650838Y-93961317D01*
X126789910Y-94177441D01*
X127002110Y-94322431D01*
X127254000Y-94373440D01*
X129286000Y-94373440D01*
X129521317Y-94329162D01*
X129737441Y-94190090D01*
X129882431Y-93977890D01*
X129933440Y-93726000D01*
X129933440Y-93036963D01*
X132968714Y-93036963D01*
X133219534Y-93643995D01*
X133683563Y-94108834D01*
X134290155Y-94360713D01*
X134946963Y-94361286D01*
X135553995Y-94110466D01*
X136018834Y-93646437D01*
X136270713Y-93039845D01*
X136271253Y-92420213D01*
X155409392Y-92420213D01*
X155478857Y-92662397D01*
X156002302Y-92849144D01*
X156557368Y-92821362D01*
X156941143Y-92662397D01*
X157010608Y-92420213D01*
X156210000Y-91619605D01*
X155409392Y-92420213D01*
X136271253Y-92420213D01*
X136271286Y-92383037D01*
X136020466Y-91776005D01*
X135556437Y-91311166D01*
X134949845Y-91059287D01*
X134293037Y-91058714D01*
X133686005Y-91309534D01*
X133221166Y-91773563D01*
X132969287Y-92380155D01*
X132968714Y-93036963D01*
X129933440Y-93036963D01*
X129933440Y-91694000D01*
X129889162Y-91458683D01*
X129750090Y-91242559D01*
X129537890Y-91097569D01*
X129286000Y-91046560D01*
X127254000Y-91046560D01*
X127018683Y-91090838D01*
X126802559Y-91229910D01*
X126657569Y-91442110D01*
X126606560Y-91694000D01*
X107315000Y-91694000D01*
X107315000Y-90638518D01*
X107485428Y-90809244D01*
X108278664Y-91138624D01*
X109137567Y-91139374D01*
X109931377Y-90811378D01*
X110539244Y-90204572D01*
X110868624Y-89411336D01*
X110868626Y-89408000D01*
X145910560Y-89408000D01*
X145910560Y-90932000D01*
X145954838Y-91167317D01*
X146093910Y-91383441D01*
X146306110Y-91528431D01*
X146558000Y-91579440D01*
X148082000Y-91579440D01*
X148317317Y-91535162D01*
X148533441Y-91396090D01*
X148678431Y-91183890D01*
X148685250Y-91150213D01*
X151599392Y-91150213D01*
X151668857Y-91392397D01*
X152192302Y-91579144D01*
X152747368Y-91551362D01*
X153131143Y-91392397D01*
X153177062Y-91232302D01*
X154800856Y-91232302D01*
X154828638Y-91787368D01*
X154987603Y-92171143D01*
X155229787Y-92240608D01*
X156030395Y-91440000D01*
X156389605Y-91440000D01*
X157190213Y-92240608D01*
X157340560Y-92197484D01*
X157340560Y-92202000D01*
X157384838Y-92437317D01*
X157523910Y-92653441D01*
X157736110Y-92798431D01*
X157988000Y-92849440D01*
X159512000Y-92849440D01*
X159747317Y-92805162D01*
X159963441Y-92666090D01*
X160108431Y-92453890D01*
X160159440Y-92202000D01*
X160159440Y-90678000D01*
X161150560Y-90678000D01*
X161150560Y-92202000D01*
X161194838Y-92437317D01*
X161333910Y-92653441D01*
X161546110Y-92798431D01*
X161798000Y-92849440D01*
X163322000Y-92849440D01*
X163557317Y-92805162D01*
X163773441Y-92666090D01*
X163918431Y-92453890D01*
X163969440Y-92202000D01*
X163969440Y-91716661D01*
X166242758Y-91716661D01*
X166454990Y-92230303D01*
X166847630Y-92623629D01*
X167360900Y-92836757D01*
X167916661Y-92837242D01*
X168430303Y-92625010D01*
X168823629Y-92232370D01*
X169036757Y-91719100D01*
X169037242Y-91163339D01*
X168825010Y-90649697D01*
X168432370Y-90256371D01*
X167919100Y-90043243D01*
X167363339Y-90042758D01*
X166849697Y-90254990D01*
X166456371Y-90647630D01*
X166243243Y-91160900D01*
X166242758Y-91716661D01*
X163969440Y-91716661D01*
X163969440Y-90678000D01*
X163925162Y-90442683D01*
X163786090Y-90226559D01*
X163573890Y-90081569D01*
X163322000Y-90030560D01*
X161798000Y-90030560D01*
X161562683Y-90074838D01*
X161346559Y-90213910D01*
X161201569Y-90426110D01*
X161150560Y-90678000D01*
X160159440Y-90678000D01*
X160115162Y-90442683D01*
X159976090Y-90226559D01*
X159763890Y-90081569D01*
X159512000Y-90030560D01*
X157988000Y-90030560D01*
X157752683Y-90074838D01*
X157536559Y-90213910D01*
X157391569Y-90426110D01*
X157340560Y-90678000D01*
X157340560Y-90682516D01*
X157190213Y-90639392D01*
X156389605Y-91440000D01*
X156030395Y-91440000D01*
X155229787Y-90639392D01*
X154987603Y-90708857D01*
X154800856Y-91232302D01*
X153177062Y-91232302D01*
X153200608Y-91150213D01*
X152400000Y-90349605D01*
X151599392Y-91150213D01*
X148685250Y-91150213D01*
X148729440Y-90932000D01*
X148729440Y-89962302D01*
X150990856Y-89962302D01*
X151018638Y-90517368D01*
X151177603Y-90901143D01*
X151419787Y-90970608D01*
X152220395Y-90170000D01*
X152579605Y-90170000D01*
X153380213Y-90970608D01*
X153622397Y-90901143D01*
X153779857Y-90459787D01*
X155409392Y-90459787D01*
X156210000Y-91260395D01*
X157010608Y-90459787D01*
X156941143Y-90217603D01*
X156417698Y-90030856D01*
X155862632Y-90058638D01*
X155478857Y-90217603D01*
X155409392Y-90459787D01*
X153779857Y-90459787D01*
X153809144Y-90377698D01*
X153781362Y-89822632D01*
X153622397Y-89438857D01*
X153380213Y-89369392D01*
X152579605Y-90170000D01*
X152220395Y-90170000D01*
X151419787Y-89369392D01*
X151177603Y-89438857D01*
X150990856Y-89962302D01*
X148729440Y-89962302D01*
X148729440Y-89408000D01*
X148688381Y-89189787D01*
X151599392Y-89189787D01*
X152400000Y-89990395D01*
X153200608Y-89189787D01*
X153131143Y-88947603D01*
X152607698Y-88760856D01*
X152052632Y-88788638D01*
X151668857Y-88947603D01*
X151599392Y-89189787D01*
X148688381Y-89189787D01*
X148685162Y-89172683D01*
X148546090Y-88956559D01*
X148333890Y-88811569D01*
X148082000Y-88760560D01*
X146558000Y-88760560D01*
X146322683Y-88804838D01*
X146106559Y-88943910D01*
X145961569Y-89156110D01*
X145910560Y-89408000D01*
X110868626Y-89408000D01*
X110869374Y-88552433D01*
X110541378Y-87758623D01*
X109934572Y-87150756D01*
X109141336Y-86821376D01*
X108282433Y-86820626D01*
X107488623Y-87148622D01*
X107315000Y-87321942D01*
X107315000Y-86058000D01*
X111620560Y-86058000D01*
X111620560Y-87582000D01*
X111664838Y-87817317D01*
X111803910Y-88033441D01*
X112016110Y-88178431D01*
X112268000Y-88229440D01*
X113792000Y-88229440D01*
X114027317Y-88185162D01*
X114243441Y-88046090D01*
X114374007Y-87855000D01*
X121205995Y-87855000D01*
X121206000Y-87855001D01*
X121602077Y-87776215D01*
X121937856Y-87551856D01*
X122149498Y-87340213D01*
X153504392Y-87340213D01*
X153573857Y-87582397D01*
X154097302Y-87769144D01*
X154652368Y-87741362D01*
X155036143Y-87582397D01*
X155105608Y-87340213D01*
X154305000Y-86539605D01*
X153504392Y-87340213D01*
X122149498Y-87340213D01*
X123337409Y-86152302D01*
X152895856Y-86152302D01*
X152923638Y-86707368D01*
X153082603Y-87091143D01*
X153324787Y-87160608D01*
X154125395Y-86360000D01*
X154484605Y-86360000D01*
X155285213Y-87160608D01*
X155527397Y-87091143D01*
X155714144Y-86567698D01*
X155686362Y-86012632D01*
X155527397Y-85628857D01*
X155419817Y-85598000D01*
X161785560Y-85598000D01*
X161785560Y-87122000D01*
X161829838Y-87357317D01*
X161968910Y-87573441D01*
X162181110Y-87718431D01*
X162433000Y-87769440D01*
X163957000Y-87769440D01*
X164192317Y-87725162D01*
X164408441Y-87586090D01*
X164553431Y-87373890D01*
X164604440Y-87122000D01*
X164604440Y-85598000D01*
X164560162Y-85362683D01*
X164421090Y-85146559D01*
X164208890Y-85001569D01*
X163957000Y-84950560D01*
X162433000Y-84950560D01*
X162197683Y-84994838D01*
X161981559Y-85133910D01*
X161836569Y-85346110D01*
X161785560Y-85598000D01*
X155419817Y-85598000D01*
X155285213Y-85559392D01*
X154484605Y-86360000D01*
X154125395Y-86360000D01*
X153324787Y-85559392D01*
X153082603Y-85628857D01*
X152895856Y-86152302D01*
X123337409Y-86152302D01*
X124109924Y-85379787D01*
X153504392Y-85379787D01*
X154305000Y-86180395D01*
X155105608Y-85379787D01*
X155036143Y-85137603D01*
X154512698Y-84950856D01*
X153957632Y-84978638D01*
X153573857Y-85137603D01*
X153504392Y-85379787D01*
X124109924Y-85379787D01*
X126594498Y-82895213D01*
X128104392Y-82895213D01*
X128173857Y-83137397D01*
X128697302Y-83324144D01*
X129252368Y-83296362D01*
X129636143Y-83137397D01*
X129705608Y-82895213D01*
X128905000Y-82094605D01*
X128104392Y-82895213D01*
X126594498Y-82895213D01*
X126969853Y-82519858D01*
X126969856Y-82519856D01*
X127194215Y-82184077D01*
X127230109Y-82003629D01*
X127273001Y-81788000D01*
X127273000Y-81787995D01*
X127273000Y-81707302D01*
X127495856Y-81707302D01*
X127523638Y-82262368D01*
X127682603Y-82646143D01*
X127924787Y-82715608D01*
X128725395Y-81915000D01*
X129084605Y-81915000D01*
X129885213Y-82715608D01*
X130127397Y-82646143D01*
X130314144Y-82122698D01*
X130297392Y-81788000D01*
X131940560Y-81788000D01*
X131940560Y-83312000D01*
X131984838Y-83547317D01*
X132123910Y-83763441D01*
X132336110Y-83908431D01*
X132588000Y-83959440D01*
X134112000Y-83959440D01*
X134347317Y-83915162D01*
X134563441Y-83776090D01*
X134708431Y-83563890D01*
X134759440Y-83312000D01*
X134759440Y-81788000D01*
X135750560Y-81788000D01*
X135750560Y-83312000D01*
X135794838Y-83547317D01*
X135933910Y-83763441D01*
X136146110Y-83908431D01*
X136398000Y-83959440D01*
X137922000Y-83959440D01*
X138157317Y-83915162D01*
X138373441Y-83776090D01*
X138518431Y-83563890D01*
X138569440Y-83312000D01*
X138569440Y-81788000D01*
X139560560Y-81788000D01*
X139560560Y-83312000D01*
X139604838Y-83547317D01*
X139743910Y-83763441D01*
X139956110Y-83908431D01*
X140208000Y-83959440D01*
X141732000Y-83959440D01*
X141967317Y-83915162D01*
X142183441Y-83776090D01*
X142328431Y-83563890D01*
X142379440Y-83312000D01*
X142379440Y-81788000D01*
X143370560Y-81788000D01*
X143370560Y-83312000D01*
X143414838Y-83547317D01*
X143553910Y-83763441D01*
X143766110Y-83908431D01*
X144018000Y-83959440D01*
X145542000Y-83959440D01*
X145777317Y-83915162D01*
X145993441Y-83776090D01*
X146138431Y-83563890D01*
X146189440Y-83312000D01*
X146189440Y-81788000D01*
X146145162Y-81552683D01*
X146006090Y-81336559D01*
X145793890Y-81191569D01*
X145542000Y-81140560D01*
X144018000Y-81140560D01*
X143782683Y-81184838D01*
X143566559Y-81323910D01*
X143421569Y-81536110D01*
X143370560Y-81788000D01*
X142379440Y-81788000D01*
X142335162Y-81552683D01*
X142196090Y-81336559D01*
X141983890Y-81191569D01*
X141732000Y-81140560D01*
X140208000Y-81140560D01*
X139972683Y-81184838D01*
X139756559Y-81323910D01*
X139611569Y-81536110D01*
X139560560Y-81788000D01*
X138569440Y-81788000D01*
X138525162Y-81552683D01*
X138386090Y-81336559D01*
X138173890Y-81191569D01*
X137922000Y-81140560D01*
X136398000Y-81140560D01*
X136162683Y-81184838D01*
X135946559Y-81323910D01*
X135801569Y-81536110D01*
X135750560Y-81788000D01*
X134759440Y-81788000D01*
X134715162Y-81552683D01*
X134576090Y-81336559D01*
X134363890Y-81191569D01*
X134112000Y-81140560D01*
X132588000Y-81140560D01*
X132352683Y-81184838D01*
X132136559Y-81323910D01*
X131991569Y-81536110D01*
X131940560Y-81788000D01*
X130297392Y-81788000D01*
X130286362Y-81567632D01*
X130127397Y-81183857D01*
X129885213Y-81114392D01*
X129084605Y-81915000D01*
X128725395Y-81915000D01*
X127924787Y-81114392D01*
X127682603Y-81183857D01*
X127495856Y-81707302D01*
X127273000Y-81707302D01*
X127273000Y-78613000D01*
X127495560Y-78613000D01*
X127495560Y-80137000D01*
X127539838Y-80372317D01*
X127678910Y-80588441D01*
X127891110Y-80733431D01*
X128143000Y-80784440D01*
X128147516Y-80784440D01*
X128104392Y-80934787D01*
X128905000Y-81735395D01*
X129705608Y-80934787D01*
X129662484Y-80784440D01*
X129667000Y-80784440D01*
X129902317Y-80740162D01*
X130118441Y-80601090D01*
X130263431Y-80388890D01*
X130314440Y-80137000D01*
X130314440Y-78613000D01*
X130270162Y-78377683D01*
X130131090Y-78161559D01*
X129918890Y-78016569D01*
X129667000Y-77965560D01*
X128143000Y-77965560D01*
X127907683Y-78009838D01*
X127691559Y-78148910D01*
X127546569Y-78361110D01*
X127495560Y-78613000D01*
X127273000Y-78613000D01*
X127273000Y-77390712D01*
X128959271Y-75704440D01*
X129667000Y-75704440D01*
X129902317Y-75660162D01*
X130118441Y-75521090D01*
X130263431Y-75308890D01*
X130314440Y-75057000D01*
X130314440Y-73533000D01*
X130270162Y-73297683D01*
X130131090Y-73081559D01*
X129918890Y-72936569D01*
X129667000Y-72885560D01*
X129662484Y-72885560D01*
X129705608Y-72735213D01*
X129637056Y-72666661D01*
X131952758Y-72666661D01*
X132164990Y-73180303D01*
X132557630Y-73573629D01*
X133070900Y-73786757D01*
X133626661Y-73787242D01*
X134140303Y-73575010D01*
X134533629Y-73182370D01*
X134746757Y-72669100D01*
X134746759Y-72666661D01*
X135762758Y-72666661D01*
X135974990Y-73180303D01*
X136367630Y-73573629D01*
X136880900Y-73786757D01*
X137436661Y-73787242D01*
X137950303Y-73575010D01*
X138343629Y-73182370D01*
X138556757Y-72669100D01*
X138556759Y-72666661D01*
X139572758Y-72666661D01*
X139784990Y-73180303D01*
X140177630Y-73573629D01*
X140690900Y-73786757D01*
X141246661Y-73787242D01*
X141760303Y-73575010D01*
X142153629Y-73182370D01*
X142366757Y-72669100D01*
X142366759Y-72666661D01*
X143382758Y-72666661D01*
X143594990Y-73180303D01*
X143987630Y-73573629D01*
X144500900Y-73786757D01*
X145056661Y-73787242D01*
X145570303Y-73575010D01*
X145963629Y-73182370D01*
X146176757Y-72669100D01*
X146177242Y-72113339D01*
X145965010Y-71599697D01*
X145572370Y-71206371D01*
X145059100Y-70993243D01*
X144503339Y-70992758D01*
X143989697Y-71204990D01*
X143596371Y-71597630D01*
X143383243Y-72110900D01*
X143382758Y-72666661D01*
X142366759Y-72666661D01*
X142367242Y-72113339D01*
X142155010Y-71599697D01*
X141762370Y-71206371D01*
X141249100Y-70993243D01*
X140693339Y-70992758D01*
X140179697Y-71204990D01*
X139786371Y-71597630D01*
X139573243Y-72110900D01*
X139572758Y-72666661D01*
X138556759Y-72666661D01*
X138557242Y-72113339D01*
X138345010Y-71599697D01*
X137952370Y-71206371D01*
X137439100Y-70993243D01*
X136883339Y-70992758D01*
X136369697Y-71204990D01*
X135976371Y-71597630D01*
X135763243Y-72110900D01*
X135762758Y-72666661D01*
X134746759Y-72666661D01*
X134747242Y-72113339D01*
X134535010Y-71599697D01*
X134142370Y-71206371D01*
X133629100Y-70993243D01*
X133073339Y-70992758D01*
X132559697Y-71204990D01*
X132166371Y-71597630D01*
X131953243Y-72110900D01*
X131952758Y-72666661D01*
X129637056Y-72666661D01*
X128905000Y-71934605D01*
X128104392Y-72735213D01*
X128147516Y-72885560D01*
X128143000Y-72885560D01*
X127907683Y-72929838D01*
X127691559Y-73068910D01*
X127546569Y-73281110D01*
X127495560Y-73533000D01*
X127495560Y-74240729D01*
X125506144Y-76230144D01*
X125281785Y-76565923D01*
X125202999Y-76962000D01*
X125203000Y-76962005D01*
X125203000Y-81359289D01*
X120777288Y-85785000D01*
X114370914Y-85785000D01*
X114256090Y-85606559D01*
X114043890Y-85461569D01*
X113792000Y-85410560D01*
X112268000Y-85410560D01*
X112032683Y-85454838D01*
X111816559Y-85593910D01*
X111671569Y-85806110D01*
X111620560Y-86058000D01*
X107315000Y-86058000D01*
X107315000Y-84800213D01*
X112229392Y-84800213D01*
X112298857Y-85042397D01*
X112822302Y-85229144D01*
X113377368Y-85201362D01*
X113761143Y-85042397D01*
X113830608Y-84800213D01*
X113030000Y-83999605D01*
X112229392Y-84800213D01*
X107315000Y-84800213D01*
X107315000Y-83612302D01*
X111620856Y-83612302D01*
X111648638Y-84167368D01*
X111807603Y-84551143D01*
X112049787Y-84620608D01*
X112850395Y-83820000D01*
X113209605Y-83820000D01*
X114010213Y-84620608D01*
X114252397Y-84551143D01*
X114439144Y-84027698D01*
X114411362Y-83472632D01*
X114252397Y-83088857D01*
X114010213Y-83019392D01*
X113209605Y-83820000D01*
X112850395Y-83820000D01*
X112049787Y-83019392D01*
X111807603Y-83088857D01*
X111620856Y-83612302D01*
X107315000Y-83612302D01*
X107315000Y-82839787D01*
X112229392Y-82839787D01*
X113030000Y-83640395D01*
X113830608Y-82839787D01*
X113761143Y-82597603D01*
X113237698Y-82410856D01*
X112682632Y-82438638D01*
X112298857Y-82597603D01*
X112229392Y-82839787D01*
X107315000Y-82839787D01*
X107315000Y-81096661D01*
X111632758Y-81096661D01*
X111844990Y-81610303D01*
X112237630Y-82003629D01*
X112750900Y-82216757D01*
X113306661Y-82217242D01*
X113820303Y-82005010D01*
X114037692Y-81788000D01*
X119748560Y-81788000D01*
X119748560Y-83312000D01*
X119792838Y-83547317D01*
X119931910Y-83763441D01*
X120144110Y-83908431D01*
X120396000Y-83959440D01*
X121920000Y-83959440D01*
X122155317Y-83915162D01*
X122371441Y-83776090D01*
X122516431Y-83563890D01*
X122567440Y-83312000D01*
X122567440Y-81788000D01*
X122523162Y-81552683D01*
X122384090Y-81336559D01*
X122171890Y-81191569D01*
X121920000Y-81140560D01*
X120396000Y-81140560D01*
X120160683Y-81184838D01*
X119944559Y-81323910D01*
X119799569Y-81536110D01*
X119748560Y-81788000D01*
X114037692Y-81788000D01*
X114213629Y-81612370D01*
X114426757Y-81099100D01*
X114427242Y-80543339D01*
X114215010Y-80029697D01*
X113822370Y-79636371D01*
X113309100Y-79423243D01*
X112753339Y-79422758D01*
X112239697Y-79634990D01*
X111846371Y-80027630D01*
X111633243Y-80540900D01*
X111632758Y-81096661D01*
X107315000Y-81096661D01*
X107315000Y-80318518D01*
X107485428Y-80489244D01*
X108278664Y-80818624D01*
X109137567Y-80819374D01*
X109931377Y-80491378D01*
X110539244Y-79884572D01*
X110868624Y-79091336D01*
X110869183Y-78450213D01*
X120357392Y-78450213D01*
X120426857Y-78692397D01*
X120950302Y-78879144D01*
X121505368Y-78851362D01*
X121889143Y-78692397D01*
X121958608Y-78450213D01*
X121158000Y-77649605D01*
X120357392Y-78450213D01*
X110869183Y-78450213D01*
X110869374Y-78232433D01*
X110541378Y-77438623D01*
X110365365Y-77262302D01*
X119748856Y-77262302D01*
X119776638Y-77817368D01*
X119935603Y-78201143D01*
X120177787Y-78270608D01*
X120978395Y-77470000D01*
X121337605Y-77470000D01*
X122138213Y-78270608D01*
X122380397Y-78201143D01*
X122567144Y-77677698D01*
X122539362Y-77122632D01*
X122380397Y-76738857D01*
X122138213Y-76669392D01*
X121337605Y-77470000D01*
X120978395Y-77470000D01*
X120177787Y-76669392D01*
X119935603Y-76738857D01*
X119748856Y-77262302D01*
X110365365Y-77262302D01*
X109934572Y-76830756D01*
X109141336Y-76501376D01*
X108282433Y-76500626D01*
X107488623Y-76828622D01*
X107315000Y-77001942D01*
X107315000Y-76489787D01*
X120357392Y-76489787D01*
X121158000Y-77290395D01*
X121958608Y-76489787D01*
X121889143Y-76247603D01*
X121365698Y-76060856D01*
X120810632Y-76088638D01*
X120426857Y-76247603D01*
X120357392Y-76489787D01*
X107315000Y-76489787D01*
X107315000Y-71547302D01*
X127495856Y-71547302D01*
X127523638Y-72102368D01*
X127682603Y-72486143D01*
X127924787Y-72555608D01*
X128725395Y-71755000D01*
X129084605Y-71755000D01*
X129885213Y-72555608D01*
X130127397Y-72486143D01*
X130314144Y-71962698D01*
X130286362Y-71407632D01*
X130127397Y-71023857D01*
X129885213Y-70954392D01*
X129084605Y-71755000D01*
X128725395Y-71755000D01*
X127924787Y-70954392D01*
X127682603Y-71023857D01*
X127495856Y-71547302D01*
X107315000Y-71547302D01*
X107315000Y-70774787D01*
X128104392Y-70774787D01*
X128905000Y-71575395D01*
X129705608Y-70774787D01*
X129636143Y-70532603D01*
X129112698Y-70345856D01*
X128557632Y-70373638D01*
X128173857Y-70532603D01*
X128104392Y-70774787D01*
X107315000Y-70774787D01*
X107315000Y-70088518D01*
X107485428Y-70259244D01*
X108278664Y-70588624D01*
X109137567Y-70589374D01*
X109931377Y-70261378D01*
X110539244Y-69654572D01*
X110842099Y-68925213D01*
X121754392Y-68925213D01*
X121823857Y-69167397D01*
X122347302Y-69354144D01*
X122902368Y-69326362D01*
X123286143Y-69167397D01*
X123355608Y-68925213D01*
X124294392Y-68925213D01*
X124363857Y-69167397D01*
X124887302Y-69354144D01*
X125442368Y-69326362D01*
X125826143Y-69167397D01*
X125895608Y-68925213D01*
X126834392Y-68925213D01*
X126903857Y-69167397D01*
X127427302Y-69354144D01*
X127982368Y-69326362D01*
X128366143Y-69167397D01*
X128435608Y-68925213D01*
X129374392Y-68925213D01*
X129443857Y-69167397D01*
X129967302Y-69354144D01*
X130522368Y-69326362D01*
X130906143Y-69167397D01*
X130975608Y-68925213D01*
X130175000Y-68124605D01*
X129374392Y-68925213D01*
X128435608Y-68925213D01*
X127635000Y-68124605D01*
X126834392Y-68925213D01*
X125895608Y-68925213D01*
X125095000Y-68124605D01*
X124294392Y-68925213D01*
X123355608Y-68925213D01*
X122555000Y-68124605D01*
X121754392Y-68925213D01*
X110842099Y-68925213D01*
X110868624Y-68861336D01*
X110869374Y-68002433D01*
X110759824Y-67737302D01*
X121145856Y-67737302D01*
X121173638Y-68292368D01*
X121332603Y-68676143D01*
X121574787Y-68745608D01*
X122375395Y-67945000D01*
X122734605Y-67945000D01*
X123535213Y-68745608D01*
X123777397Y-68676143D01*
X123821453Y-68552656D01*
X123872603Y-68676143D01*
X124114787Y-68745608D01*
X124915395Y-67945000D01*
X125274605Y-67945000D01*
X126075213Y-68745608D01*
X126317397Y-68676143D01*
X126361453Y-68552656D01*
X126412603Y-68676143D01*
X126654787Y-68745608D01*
X127455395Y-67945000D01*
X127814605Y-67945000D01*
X128615213Y-68745608D01*
X128857397Y-68676143D01*
X128901453Y-68552656D01*
X128952603Y-68676143D01*
X129194787Y-68745608D01*
X129995395Y-67945000D01*
X130354605Y-67945000D01*
X131155213Y-68745608D01*
X131397397Y-68676143D01*
X131447509Y-68535682D01*
X131529990Y-68735303D01*
X131922630Y-69128629D01*
X132435900Y-69341757D01*
X132991661Y-69342242D01*
X133505303Y-69130010D01*
X133898629Y-68737370D01*
X133984949Y-68529488D01*
X134069990Y-68735303D01*
X134462630Y-69128629D01*
X134975900Y-69341757D01*
X135531661Y-69342242D01*
X136045303Y-69130010D01*
X136438629Y-68737370D01*
X136524949Y-68529488D01*
X136609990Y-68735303D01*
X137002630Y-69128629D01*
X137515900Y-69341757D01*
X138071661Y-69342242D01*
X138585303Y-69130010D01*
X138978629Y-68737370D01*
X139064949Y-68529488D01*
X139149990Y-68735303D01*
X139542630Y-69128629D01*
X140055900Y-69341757D01*
X140611661Y-69342242D01*
X141125303Y-69130010D01*
X141518629Y-68737370D01*
X141731757Y-68224100D01*
X141732242Y-67668339D01*
X141520010Y-67154697D01*
X141127370Y-66761371D01*
X140614100Y-66548243D01*
X140058339Y-66547758D01*
X139544697Y-66759990D01*
X139151371Y-67152630D01*
X139065051Y-67360512D01*
X138980010Y-67154697D01*
X138587370Y-66761371D01*
X138074100Y-66548243D01*
X137518339Y-66547758D01*
X137004697Y-66759990D01*
X136611371Y-67152630D01*
X136525051Y-67360512D01*
X136440010Y-67154697D01*
X136047370Y-66761371D01*
X135534100Y-66548243D01*
X134978339Y-66547758D01*
X134464697Y-66759990D01*
X134071371Y-67152630D01*
X133985051Y-67360512D01*
X133900010Y-67154697D01*
X133507370Y-66761371D01*
X132994100Y-66548243D01*
X132438339Y-66547758D01*
X131924697Y-66759990D01*
X131531371Y-67152630D01*
X131451605Y-67344727D01*
X131397397Y-67213857D01*
X131155213Y-67144392D01*
X130354605Y-67945000D01*
X129995395Y-67945000D01*
X129194787Y-67144392D01*
X128952603Y-67213857D01*
X128908547Y-67337344D01*
X128857397Y-67213857D01*
X128615213Y-67144392D01*
X127814605Y-67945000D01*
X127455395Y-67945000D01*
X126654787Y-67144392D01*
X126412603Y-67213857D01*
X126368547Y-67337344D01*
X126317397Y-67213857D01*
X126075213Y-67144392D01*
X125274605Y-67945000D01*
X124915395Y-67945000D01*
X124114787Y-67144392D01*
X123872603Y-67213857D01*
X123828547Y-67337344D01*
X123777397Y-67213857D01*
X123535213Y-67144392D01*
X122734605Y-67945000D01*
X122375395Y-67945000D01*
X121574787Y-67144392D01*
X121332603Y-67213857D01*
X121145856Y-67737302D01*
X110759824Y-67737302D01*
X110541378Y-67208623D01*
X109934572Y-66600756D01*
X109141336Y-66271376D01*
X108282433Y-66270626D01*
X107488623Y-66598622D01*
X107315000Y-66771942D01*
X107315000Y-65508000D01*
X111620560Y-65508000D01*
X111620560Y-67032000D01*
X111664838Y-67267317D01*
X111803910Y-67483441D01*
X112016110Y-67628431D01*
X112268000Y-67679440D01*
X113792000Y-67679440D01*
X114027317Y-67635162D01*
X114243441Y-67496090D01*
X114388431Y-67283890D01*
X114439440Y-67032000D01*
X114439440Y-66546661D01*
X114632758Y-66546661D01*
X114844990Y-67060303D01*
X115237630Y-67453629D01*
X115750900Y-67666757D01*
X116306661Y-67667242D01*
X116820303Y-67455010D01*
X117213629Y-67062370D01*
X117254148Y-66964787D01*
X121754392Y-66964787D01*
X122555000Y-67765395D01*
X123355608Y-66964787D01*
X124294392Y-66964787D01*
X125095000Y-67765395D01*
X125895608Y-66964787D01*
X126834392Y-66964787D01*
X127635000Y-67765395D01*
X128435608Y-66964787D01*
X129374392Y-66964787D01*
X130175000Y-67765395D01*
X130975608Y-66964787D01*
X130906143Y-66722603D01*
X130382698Y-66535856D01*
X129827632Y-66563638D01*
X129443857Y-66722603D01*
X129374392Y-66964787D01*
X128435608Y-66964787D01*
X128366143Y-66722603D01*
X127842698Y-66535856D01*
X127287632Y-66563638D01*
X126903857Y-66722603D01*
X126834392Y-66964787D01*
X125895608Y-66964787D01*
X125826143Y-66722603D01*
X125302698Y-66535856D01*
X124747632Y-66563638D01*
X124363857Y-66722603D01*
X124294392Y-66964787D01*
X123355608Y-66964787D01*
X123286143Y-66722603D01*
X122762698Y-66535856D01*
X122207632Y-66563638D01*
X121823857Y-66722603D01*
X121754392Y-66964787D01*
X117254148Y-66964787D01*
X117426757Y-66549100D01*
X117427242Y-65993339D01*
X117215010Y-65479697D01*
X116822370Y-65086371D01*
X116309100Y-64873243D01*
X115753339Y-64872758D01*
X115239697Y-65084990D01*
X114846371Y-65477630D01*
X114633243Y-65990900D01*
X114632758Y-66546661D01*
X114439440Y-66546661D01*
X114439440Y-65508000D01*
X114395162Y-65272683D01*
X114256090Y-65056559D01*
X114043890Y-64911569D01*
X113792000Y-64860560D01*
X112268000Y-64860560D01*
X112032683Y-64904838D01*
X111816559Y-65043910D01*
X111671569Y-65256110D01*
X111620560Y-65508000D01*
X107315000Y-65508000D01*
X107315000Y-63546661D01*
X111632758Y-63546661D01*
X111844990Y-64060303D01*
X112237630Y-64453629D01*
X112750900Y-64666757D01*
X113306661Y-64667242D01*
X113820303Y-64455010D01*
X114213629Y-64062370D01*
X114426757Y-63549100D01*
X114426759Y-63546661D01*
X114632758Y-63546661D01*
X114844990Y-64060303D01*
X115237630Y-64453629D01*
X115750900Y-64666757D01*
X116306661Y-64667242D01*
X116820303Y-64455010D01*
X116970575Y-64305000D01*
X127483995Y-64305000D01*
X127484000Y-64305001D01*
X127880077Y-64226215D01*
X128215856Y-64001856D01*
X135606316Y-56611395D01*
X136045303Y-56430010D01*
X136438629Y-56037370D01*
X136524949Y-55829488D01*
X136609990Y-56035303D01*
X137002630Y-56428629D01*
X137515900Y-56641757D01*
X138071661Y-56642242D01*
X138585303Y-56430010D01*
X138938000Y-56077928D01*
X138938000Y-56133309D01*
X139034673Y-56366698D01*
X139213301Y-56545327D01*
X139446690Y-56642000D01*
X140049250Y-56642000D01*
X140208000Y-56483250D01*
X140208000Y-55372000D01*
X140462000Y-55372000D01*
X140462000Y-56483250D01*
X140620750Y-56642000D01*
X141223310Y-56642000D01*
X141456699Y-56545327D01*
X141635327Y-56366698D01*
X141732000Y-56133309D01*
X141732000Y-55530750D01*
X141573250Y-55372000D01*
X140462000Y-55372000D01*
X140208000Y-55372000D01*
X140188000Y-55372000D01*
X140188000Y-55118000D01*
X140208000Y-55118000D01*
X140208000Y-54006750D01*
X140462000Y-54006750D01*
X140462000Y-55118000D01*
X141573250Y-55118000D01*
X141732000Y-54959250D01*
X141732000Y-54356691D01*
X141635327Y-54123302D01*
X141456699Y-53944673D01*
X141223310Y-53848000D01*
X140620750Y-53848000D01*
X140462000Y-54006750D01*
X140208000Y-54006750D01*
X140049250Y-53848000D01*
X139446690Y-53848000D01*
X139213301Y-53944673D01*
X139034673Y-54123302D01*
X138938000Y-54356691D01*
X138938000Y-54412614D01*
X138587370Y-54061371D01*
X138074100Y-53848243D01*
X137518339Y-53847758D01*
X137004697Y-54059990D01*
X136611371Y-54452630D01*
X136525051Y-54660512D01*
X136440010Y-54454697D01*
X136047370Y-54061371D01*
X135534100Y-53848243D01*
X134978339Y-53847758D01*
X134464697Y-54059990D01*
X134071371Y-54452630D01*
X133985051Y-54660512D01*
X133900010Y-54454697D01*
X133507370Y-54061371D01*
X132994100Y-53848243D01*
X132438339Y-53847758D01*
X131924697Y-54059990D01*
X131531371Y-54452630D01*
X131445051Y-54660512D01*
X131360010Y-54454697D01*
X130967370Y-54061371D01*
X130454100Y-53848243D01*
X129898339Y-53847758D01*
X129384697Y-54059990D01*
X128991371Y-54452630D01*
X128905051Y-54660512D01*
X128820010Y-54454697D01*
X128427370Y-54061371D01*
X127914100Y-53848243D01*
X127358339Y-53847758D01*
X126844697Y-54059990D01*
X126451371Y-54452630D01*
X126371605Y-54644727D01*
X126317397Y-54513857D01*
X126075213Y-54444392D01*
X125274605Y-55245000D01*
X126075213Y-56045608D01*
X126317397Y-55976143D01*
X126367509Y-55835682D01*
X126449990Y-56035303D01*
X126842630Y-56428629D01*
X127355900Y-56641757D01*
X127911661Y-56642242D01*
X128425303Y-56430010D01*
X128818629Y-56037370D01*
X128904949Y-55829488D01*
X128989990Y-56035303D01*
X129382630Y-56428629D01*
X129895900Y-56641757D01*
X130451661Y-56642242D01*
X130965303Y-56430010D01*
X131358629Y-56037370D01*
X131444949Y-55829488D01*
X131529990Y-56035303D01*
X131922630Y-56428629D01*
X132435900Y-56641757D01*
X132648346Y-56641942D01*
X127055288Y-62235000D01*
X116970740Y-62235000D01*
X116822370Y-62086371D01*
X116309100Y-61873243D01*
X115753339Y-61872758D01*
X115239697Y-62084990D01*
X114846371Y-62477630D01*
X114633243Y-62990900D01*
X114632758Y-63546661D01*
X114426759Y-63546661D01*
X114427242Y-62993339D01*
X114215010Y-62479697D01*
X113822370Y-62086371D01*
X113309100Y-61873243D01*
X112753339Y-61872758D01*
X112239697Y-62084990D01*
X111846371Y-62477630D01*
X111633243Y-62990900D01*
X111632758Y-63546661D01*
X107315000Y-63546661D01*
X107315000Y-62768518D01*
X107485428Y-62939244D01*
X108278664Y-63268624D01*
X109137567Y-63269374D01*
X109931377Y-62941378D01*
X110539244Y-62334572D01*
X110868624Y-61541336D01*
X110869374Y-60682433D01*
X110541378Y-59888623D01*
X109934572Y-59280756D01*
X109141336Y-58951376D01*
X108282433Y-58950626D01*
X107488623Y-59278622D01*
X107315000Y-59451942D01*
X107315000Y-56388000D01*
X115430560Y-56388000D01*
X115430560Y-57912000D01*
X115474838Y-58147317D01*
X115613910Y-58363441D01*
X115826110Y-58508431D01*
X116078000Y-58559440D01*
X117602000Y-58559440D01*
X117837317Y-58515162D01*
X118053441Y-58376090D01*
X118198431Y-58163890D01*
X118249440Y-57912000D01*
X118249440Y-56388000D01*
X118205162Y-56152683D01*
X118066090Y-55936559D01*
X117853890Y-55791569D01*
X117602000Y-55740560D01*
X117597484Y-55740560D01*
X117640608Y-55590213D01*
X117572056Y-55521661D01*
X121157758Y-55521661D01*
X121369990Y-56035303D01*
X121762630Y-56428629D01*
X122275900Y-56641757D01*
X122831661Y-56642242D01*
X123345303Y-56430010D01*
X123550457Y-56225213D01*
X124294392Y-56225213D01*
X124363857Y-56467397D01*
X124887302Y-56654144D01*
X125442368Y-56626362D01*
X125826143Y-56467397D01*
X125895608Y-56225213D01*
X125095000Y-55424605D01*
X124294392Y-56225213D01*
X123550457Y-56225213D01*
X123738629Y-56037370D01*
X123818395Y-55845273D01*
X123872603Y-55976143D01*
X124114787Y-56045608D01*
X124915395Y-55245000D01*
X124114787Y-54444392D01*
X123872603Y-54513857D01*
X123822491Y-54654318D01*
X123740010Y-54454697D01*
X123550432Y-54264787D01*
X124294392Y-54264787D01*
X125095000Y-55065395D01*
X125895608Y-54264787D01*
X125826143Y-54022603D01*
X125302698Y-53835856D01*
X124747632Y-53863638D01*
X124363857Y-54022603D01*
X124294392Y-54264787D01*
X123550432Y-54264787D01*
X123347370Y-54061371D01*
X122834100Y-53848243D01*
X122278339Y-53847758D01*
X121764697Y-54059990D01*
X121371371Y-54452630D01*
X121158243Y-54965900D01*
X121157758Y-55521661D01*
X117572056Y-55521661D01*
X116840000Y-54789605D01*
X116039392Y-55590213D01*
X116082516Y-55740560D01*
X116078000Y-55740560D01*
X115842683Y-55784838D01*
X115626559Y-55923910D01*
X115481569Y-56136110D01*
X115430560Y-56388000D01*
X107315000Y-56388000D01*
X107315000Y-54402302D01*
X115430856Y-54402302D01*
X115458638Y-54957368D01*
X115617603Y-55341143D01*
X115859787Y-55410608D01*
X116660395Y-54610000D01*
X117019605Y-54610000D01*
X117820213Y-55410608D01*
X118062397Y-55341143D01*
X118249144Y-54817698D01*
X118221362Y-54262632D01*
X118062397Y-53878857D01*
X117820213Y-53809392D01*
X117019605Y-54610000D01*
X116660395Y-54610000D01*
X115859787Y-53809392D01*
X115617603Y-53878857D01*
X115430856Y-54402302D01*
X107315000Y-54402302D01*
X107315000Y-53629787D01*
X116039392Y-53629787D01*
X116840000Y-54430395D01*
X117640608Y-53629787D01*
X117571143Y-53387603D01*
X117047698Y-53200856D01*
X116492632Y-53228638D01*
X116108857Y-53387603D01*
X116039392Y-53629787D01*
X107315000Y-53629787D01*
X107315000Y-44577000D01*
X232029000Y-44577000D01*
X232029000Y-117983000D01*
X232029000Y-117983000D01*
G37*
X232029000Y-117983000D02*
X107315000Y-117983000D01*
X107315000Y-109114107D01*
X127285498Y-109114107D01*
X127386120Y-109382622D01*
X128001642Y-109611816D01*
X128658019Y-109588014D01*
X129153880Y-109382622D01*
X129254502Y-109114107D01*
X128270000Y-108129605D01*
X127285498Y-109114107D01*
X107315000Y-109114107D01*
X107315000Y-108188518D01*
X107485428Y-108359244D01*
X108278664Y-108688624D01*
X109137567Y-108689374D01*
X109931377Y-108361378D01*
X110539244Y-107754572D01*
X110569527Y-107681642D01*
X126608184Y-107681642D01*
X126631986Y-108338019D01*
X126837378Y-108833880D01*
X127105893Y-108934502D01*
X128090395Y-107950000D01*
X128449605Y-107950000D01*
X129434107Y-108934502D01*
X129702622Y-108833880D01*
X129931816Y-108218358D01*
X129908014Y-107561981D01*
X129702622Y-107066120D01*
X129434107Y-106965498D01*
X128449605Y-107950000D01*
X128090395Y-107950000D01*
X127105893Y-106965498D01*
X126837378Y-107066120D01*
X126608184Y-107681642D01*
X110569527Y-107681642D01*
X110868624Y-106961336D01*
X110868777Y-106785893D01*
X127285498Y-106785893D01*
X128270000Y-107770395D01*
X129106395Y-106934000D01*
X132956560Y-106934000D01*
X132956560Y-108966000D01*
X133000838Y-109201317D01*
X133139910Y-109417441D01*
X133352110Y-109562431D01*
X133604000Y-109613440D01*
X135636000Y-109613440D01*
X135871317Y-109569162D01*
X136087441Y-109430090D01*
X136232431Y-109217890D01*
X136283440Y-108966000D01*
X136283440Y-106934000D01*
X136239162Y-106698683D01*
X136100090Y-106482559D01*
X135887890Y-106337569D01*
X135636000Y-106286560D01*
X133604000Y-106286560D01*
X133368683Y-106330838D01*
X133152559Y-106469910D01*
X133007569Y-106682110D01*
X132956560Y-106934000D01*
X129106395Y-106934000D01*
X129254502Y-106785893D01*
X129153880Y-106517378D01*
X128538358Y-106288184D01*
X127881981Y-106311986D01*
X127386120Y-106517378D01*
X127285498Y-106785893D01*
X110868777Y-106785893D01*
X110869374Y-106102433D01*
X110541378Y-105308623D01*
X109934572Y-104700756D01*
X109141336Y-104371376D01*
X108282433Y-104370626D01*
X107488623Y-104698622D01*
X107315000Y-104871942D01*
X107315000Y-103608000D01*
X111620560Y-103608000D01*
X111620560Y-105132000D01*
X111664838Y-105367317D01*
X111803910Y-105583441D01*
X112016110Y-105728431D01*
X112268000Y-105779440D01*
X113792000Y-105779440D01*
X114027317Y-105735162D01*
X114243441Y-105596090D01*
X114388431Y-105383890D01*
X114439440Y-105132000D01*
X114439440Y-103850213D01*
X118579392Y-103850213D01*
X118648857Y-104092397D01*
X119172302Y-104279144D01*
X119727368Y-104251362D01*
X120111143Y-104092397D01*
X120133916Y-104013000D01*
X138290560Y-104013000D01*
X138290560Y-105537000D01*
X138334838Y-105772317D01*
X138473910Y-105988441D01*
X138686110Y-106133431D01*
X138938000Y-106184440D01*
X140462000Y-106184440D01*
X140697317Y-106140162D01*
X140913441Y-106001090D01*
X141058431Y-105788890D01*
X141109440Y-105537000D01*
X141109440Y-104648000D01*
X148450560Y-104648000D01*
X148450560Y-106172000D01*
X148494838Y-106407317D01*
X148633910Y-106623441D01*
X148846110Y-106768431D01*
X149098000Y-106819440D01*
X150622000Y-106819440D01*
X150857317Y-106775162D01*
X151073441Y-106636090D01*
X151218431Y-106423890D01*
X151269440Y-106172000D01*
X151269440Y-104648000D01*
X151225162Y-104412683D01*
X151086090Y-104196559D01*
X150873890Y-104051569D01*
X150622000Y-104000560D01*
X149098000Y-104000560D01*
X148862683Y-104044838D01*
X148646559Y-104183910D01*
X148501569Y-104396110D01*
X148450560Y-104648000D01*
X141109440Y-104648000D01*
X141109440Y-104013000D01*
X141065162Y-103777683D01*
X140926090Y-103561559D01*
X140713890Y-103416569D01*
X140462000Y-103365560D01*
X138938000Y-103365560D01*
X138702683Y-103409838D01*
X138486559Y-103548910D01*
X138341569Y-103761110D01*
X138290560Y-104013000D01*
X120133916Y-104013000D01*
X120180608Y-103850213D01*
X119380000Y-103049605D01*
X118579392Y-103850213D01*
X114439440Y-103850213D01*
X114439440Y-103608000D01*
X114395162Y-103372683D01*
X114256090Y-103156559D01*
X114043890Y-103011569D01*
X113792000Y-102960560D01*
X112268000Y-102960560D01*
X112032683Y-103004838D01*
X111816559Y-103143910D01*
X111671569Y-103356110D01*
X111620560Y-103608000D01*
X107315000Y-103608000D01*
X107315000Y-102350213D01*
X112229392Y-102350213D01*
X112298857Y-102592397D01*
X112822302Y-102779144D01*
X113377368Y-102751362D01*
X113592377Y-102662302D01*
X117970856Y-102662302D01*
X117998638Y-103217368D01*
X118157603Y-103601143D01*
X118399787Y-103670608D01*
X119200395Y-102870000D01*
X119559605Y-102870000D01*
X120360213Y-103670608D01*
X120602397Y-103601143D01*
X120789144Y-103077698D01*
X120761362Y-102522632D01*
X120602397Y-102138857D01*
X120494817Y-102108000D01*
X143370560Y-102108000D01*
X143370560Y-103632000D01*
X143414838Y-103867317D01*
X143553910Y-104083441D01*
X143766110Y-104228431D01*
X144018000Y-104279440D01*
X145542000Y-104279440D01*
X145777317Y-104235162D01*
X145993441Y-104096090D01*
X146138431Y-103883890D01*
X146189440Y-103632000D01*
X146189440Y-102108000D01*
X146165544Y-101981000D01*
X151879560Y-101981000D01*
X151879560Y-103759000D01*
X151923838Y-103994317D01*
X152062910Y-104210441D01*
X152275110Y-104355431D01*
X152527000Y-104406440D01*
X154813000Y-104406440D01*
X155048317Y-104362162D01*
X155264441Y-104223090D01*
X155409431Y-104010890D01*
X155460440Y-103759000D01*
X155460440Y-101981000D01*
X155416162Y-101745683D01*
X155277090Y-101529559D01*
X155064890Y-101384569D01*
X155019197Y-101375316D01*
X155091433Y-101317829D01*
X155380593Y-100795878D01*
X155404134Y-100693013D01*
X155283330Y-100457000D01*
X153797000Y-100457000D01*
X153797000Y-100477000D01*
X153543000Y-100477000D01*
X153543000Y-100457000D01*
X152056670Y-100457000D01*
X151935866Y-100693013D01*
X151959407Y-100795878D01*
X152248567Y-101317829D01*
X152317797Y-101372924D01*
X152291683Y-101377838D01*
X152075559Y-101516910D01*
X151930569Y-101729110D01*
X151879560Y-101981000D01*
X146165544Y-101981000D01*
X146145162Y-101872683D01*
X146006090Y-101656559D01*
X145793890Y-101511569D01*
X145542000Y-101460560D01*
X144018000Y-101460560D01*
X143782683Y-101504838D01*
X143566559Y-101643910D01*
X143421569Y-101856110D01*
X143370560Y-102108000D01*
X120494817Y-102108000D01*
X120360213Y-102069392D01*
X119559605Y-102870000D01*
X119200395Y-102870000D01*
X118399787Y-102069392D01*
X118157603Y-102138857D01*
X117970856Y-102662302D01*
X113592377Y-102662302D01*
X113761143Y-102592397D01*
X113830608Y-102350213D01*
X113030000Y-101549605D01*
X112229392Y-102350213D01*
X107315000Y-102350213D01*
X107315000Y-100868518D01*
X107485428Y-101039244D01*
X108278664Y-101368624D01*
X109137567Y-101369374D01*
X109638718Y-101162302D01*
X111620856Y-101162302D01*
X111648638Y-101717368D01*
X111807603Y-102101143D01*
X112049787Y-102170608D01*
X112850395Y-101370000D01*
X113209605Y-101370000D01*
X114010213Y-102170608D01*
X114252397Y-102101143D01*
X114327801Y-101889787D01*
X118579392Y-101889787D01*
X119380000Y-102690395D01*
X120180608Y-101889787D01*
X120111143Y-101647603D01*
X119587698Y-101460856D01*
X119032632Y-101488638D01*
X118648857Y-101647603D01*
X118579392Y-101889787D01*
X114327801Y-101889787D01*
X114439144Y-101577698D01*
X114425756Y-101310213D01*
X122389392Y-101310213D01*
X122458857Y-101552397D01*
X122982302Y-101739144D01*
X123537368Y-101711362D01*
X123921143Y-101552397D01*
X123990608Y-101310213D01*
X123190000Y-100509605D01*
X122389392Y-101310213D01*
X114425756Y-101310213D01*
X114411362Y-101022632D01*
X114252397Y-100638857D01*
X114010213Y-100569392D01*
X113209605Y-101370000D01*
X112850395Y-101370000D01*
X112049787Y-100569392D01*
X111807603Y-100638857D01*
X111620856Y-101162302D01*
X109638718Y-101162302D01*
X109931377Y-101041378D01*
X110539244Y-100434572D01*
X110557840Y-100389787D01*
X112229392Y-100389787D01*
X113030000Y-101190395D01*
X113830608Y-100389787D01*
X113761143Y-100147603D01*
X113690226Y-100122302D01*
X121780856Y-100122302D01*
X121808638Y-100677368D01*
X121967603Y-101061143D01*
X122209787Y-101130608D01*
X123010395Y-100330000D01*
X123369605Y-100330000D01*
X124170213Y-101130608D01*
X124412397Y-101061143D01*
X124599144Y-100537698D01*
X124586410Y-100283275D01*
X168580000Y-100283275D01*
X168580000Y-100376725D01*
X168761547Y-101289425D01*
X169278550Y-102063175D01*
X170052300Y-102580178D01*
X170965000Y-102761725D01*
X171877700Y-102580178D01*
X172651450Y-102063175D01*
X173168453Y-101289425D01*
X173350000Y-100376725D01*
X173350000Y-100283275D01*
X173168453Y-99370575D01*
X172651450Y-98596825D01*
X171877700Y-98079822D01*
X170965000Y-97898275D01*
X170052300Y-98079822D01*
X169278550Y-98596825D01*
X168761547Y-99370575D01*
X168580000Y-100283275D01*
X124586410Y-100283275D01*
X124571362Y-99982632D01*
X124412397Y-99598857D01*
X124170213Y-99529392D01*
X123369605Y-100330000D01*
X123010395Y-100330000D01*
X122209787Y-99529392D01*
X121967603Y-99598857D01*
X121780856Y-100122302D01*
X113690226Y-100122302D01*
X113237698Y-99960856D01*
X112682632Y-99988638D01*
X112298857Y-100147603D01*
X112229392Y-100389787D01*
X110557840Y-100389787D01*
X110868624Y-99641336D01*
X110869374Y-98782433D01*
X110541378Y-97988623D01*
X109934572Y-97380756D01*
X109141336Y-97051376D01*
X108282433Y-97050626D01*
X107488623Y-97378622D01*
X107315000Y-97551942D01*
X107315000Y-97028000D01*
X121780560Y-97028000D01*
X121780560Y-98552000D01*
X121824838Y-98787317D01*
X121963910Y-99003441D01*
X122176110Y-99148431D01*
X122428000Y-99199440D01*
X122432516Y-99199440D01*
X122389392Y-99349787D01*
X123190000Y-100150395D01*
X123990608Y-99349787D01*
X123947484Y-99199440D01*
X123952000Y-99199440D01*
X124187317Y-99155162D01*
X124403441Y-99016090D01*
X124548431Y-98803890D01*
X124555250Y-98770213D01*
X143979392Y-98770213D01*
X144048857Y-99012397D01*
X144572302Y-99199144D01*
X145127368Y-99171362D01*
X145511143Y-99012397D01*
X145580608Y-98770213D01*
X144780000Y-97969605D01*
X143979392Y-98770213D01*
X124555250Y-98770213D01*
X124599440Y-98552000D01*
X124599440Y-97582302D01*
X143370856Y-97582302D01*
X143398638Y-98137368D01*
X143557603Y-98521143D01*
X143799787Y-98590608D01*
X144600395Y-97790000D01*
X144959605Y-97790000D01*
X145760213Y-98590608D01*
X146002397Y-98521143D01*
X146189144Y-97997698D01*
X146178749Y-97790000D01*
X151857167Y-97790000D01*
X151973175Y-98373210D01*
X152303536Y-98867631D01*
X152597794Y-99064248D01*
X152248567Y-99342171D01*
X151959407Y-99864122D01*
X151935866Y-99966987D01*
X152056670Y-100203000D01*
X153543000Y-100203000D01*
X153543000Y-100183000D01*
X153797000Y-100183000D01*
X153797000Y-100203000D01*
X155283330Y-100203000D01*
X155404134Y-99966987D01*
X155380593Y-99864122D01*
X155091433Y-99342171D01*
X154742206Y-99064248D01*
X155036464Y-98867631D01*
X155366825Y-98373210D01*
X155482833Y-97790000D01*
X155366825Y-97206790D01*
X155036464Y-96712369D01*
X154542043Y-96382008D01*
X153958833Y-96266000D01*
X153381167Y-96266000D01*
X152797957Y-96382008D01*
X152303536Y-96712369D01*
X151973175Y-97206790D01*
X151857167Y-97790000D01*
X146178749Y-97790000D01*
X146161362Y-97442632D01*
X146002397Y-97058857D01*
X145760213Y-96989392D01*
X144959605Y-97790000D01*
X144600395Y-97790000D01*
X143799787Y-96989392D01*
X143557603Y-97058857D01*
X143370856Y-97582302D01*
X124599440Y-97582302D01*
X124599440Y-97028000D01*
X124568810Y-96865213D01*
X138899392Y-96865213D01*
X138968857Y-97107397D01*
X139492302Y-97294144D01*
X140047368Y-97266362D01*
X140431143Y-97107397D01*
X140500608Y-96865213D01*
X140445182Y-96809787D01*
X143979392Y-96809787D01*
X144780000Y-97610395D01*
X145580608Y-96809787D01*
X145511143Y-96567603D01*
X144987698Y-96380856D01*
X144432632Y-96408638D01*
X144048857Y-96567603D01*
X143979392Y-96809787D01*
X140445182Y-96809787D01*
X139700000Y-96064605D01*
X138899392Y-96865213D01*
X124568810Y-96865213D01*
X124555162Y-96792683D01*
X124416090Y-96576559D01*
X124203890Y-96431569D01*
X123952000Y-96380560D01*
X122428000Y-96380560D01*
X122192683Y-96424838D01*
X121976559Y-96563910D01*
X121831569Y-96776110D01*
X121780560Y-97028000D01*
X107315000Y-97028000D01*
X107315000Y-94488000D01*
X117970560Y-94488000D01*
X117970560Y-96012000D01*
X118014838Y-96247317D01*
X118153910Y-96463441D01*
X118366110Y-96608431D01*
X118618000Y-96659440D01*
X120142000Y-96659440D01*
X120377317Y-96615162D01*
X120593441Y-96476090D01*
X120738431Y-96263890D01*
X120789440Y-96012000D01*
X120789440Y-95677302D01*
X138290856Y-95677302D01*
X138318638Y-96232368D01*
X138477603Y-96616143D01*
X138719787Y-96685608D01*
X139520395Y-95885000D01*
X139879605Y-95885000D01*
X140680213Y-96685608D01*
X140922397Y-96616143D01*
X141109144Y-96092698D01*
X141081362Y-95537632D01*
X141076818Y-95526661D01*
X148462758Y-95526661D01*
X148674990Y-96040303D01*
X149067630Y-96433629D01*
X149580900Y-96646757D01*
X150136661Y-96647242D01*
X150650303Y-96435010D01*
X151043629Y-96042370D01*
X151256757Y-95529100D01*
X151257242Y-94973339D01*
X151045010Y-94459697D01*
X150652370Y-94066371D01*
X150139100Y-93853243D01*
X149583339Y-93852758D01*
X149069697Y-94064990D01*
X148676371Y-94457630D01*
X148463243Y-94970900D01*
X148462758Y-95526661D01*
X141076818Y-95526661D01*
X140922397Y-95153857D01*
X140680213Y-95084392D01*
X139879605Y-95885000D01*
X139520395Y-95885000D01*
X138719787Y-95084392D01*
X138477603Y-95153857D01*
X138290856Y-95677302D01*
X120789440Y-95677302D01*
X120789440Y-94904787D01*
X138899392Y-94904787D01*
X139700000Y-95705395D01*
X140500608Y-94904787D01*
X140431143Y-94662603D01*
X139907698Y-94475856D01*
X139352632Y-94503638D01*
X138968857Y-94662603D01*
X138899392Y-94904787D01*
X120789440Y-94904787D01*
X120789440Y-94488000D01*
X120745162Y-94252683D01*
X120606090Y-94036559D01*
X120393890Y-93891569D01*
X120142000Y-93840560D01*
X118618000Y-93840560D01*
X118382683Y-93884838D01*
X118166559Y-94023910D01*
X118021569Y-94236110D01*
X117970560Y-94488000D01*
X107315000Y-94488000D01*
X107315000Y-91694000D01*
X126606560Y-91694000D01*
X126606560Y-93726000D01*
X126650838Y-93961317D01*
X126789910Y-94177441D01*
X127002110Y-94322431D01*
X127254000Y-94373440D01*
X129286000Y-94373440D01*
X129521317Y-94329162D01*
X129737441Y-94190090D01*
X129882431Y-93977890D01*
X129933440Y-93726000D01*
X129933440Y-93036963D01*
X132968714Y-93036963D01*
X133219534Y-93643995D01*
X133683563Y-94108834D01*
X134290155Y-94360713D01*
X134946963Y-94361286D01*
X135553995Y-94110466D01*
X136018834Y-93646437D01*
X136270713Y-93039845D01*
X136271253Y-92420213D01*
X155409392Y-92420213D01*
X155478857Y-92662397D01*
X156002302Y-92849144D01*
X156557368Y-92821362D01*
X156941143Y-92662397D01*
X157010608Y-92420213D01*
X156210000Y-91619605D01*
X155409392Y-92420213D01*
X136271253Y-92420213D01*
X136271286Y-92383037D01*
X136020466Y-91776005D01*
X135556437Y-91311166D01*
X134949845Y-91059287D01*
X134293037Y-91058714D01*
X133686005Y-91309534D01*
X133221166Y-91773563D01*
X132969287Y-92380155D01*
X132968714Y-93036963D01*
X129933440Y-93036963D01*
X129933440Y-91694000D01*
X129889162Y-91458683D01*
X129750090Y-91242559D01*
X129537890Y-91097569D01*
X129286000Y-91046560D01*
X127254000Y-91046560D01*
X127018683Y-91090838D01*
X126802559Y-91229910D01*
X126657569Y-91442110D01*
X126606560Y-91694000D01*
X107315000Y-91694000D01*
X107315000Y-90638518D01*
X107485428Y-90809244D01*
X108278664Y-91138624D01*
X109137567Y-91139374D01*
X109931377Y-90811378D01*
X110539244Y-90204572D01*
X110868624Y-89411336D01*
X110868626Y-89408000D01*
X145910560Y-89408000D01*
X145910560Y-90932000D01*
X145954838Y-91167317D01*
X146093910Y-91383441D01*
X146306110Y-91528431D01*
X146558000Y-91579440D01*
X148082000Y-91579440D01*
X148317317Y-91535162D01*
X148533441Y-91396090D01*
X148678431Y-91183890D01*
X148685250Y-91150213D01*
X151599392Y-91150213D01*
X151668857Y-91392397D01*
X152192302Y-91579144D01*
X152747368Y-91551362D01*
X153131143Y-91392397D01*
X153177062Y-91232302D01*
X154800856Y-91232302D01*
X154828638Y-91787368D01*
X154987603Y-92171143D01*
X155229787Y-92240608D01*
X156030395Y-91440000D01*
X156389605Y-91440000D01*
X157190213Y-92240608D01*
X157340560Y-92197484D01*
X157340560Y-92202000D01*
X157384838Y-92437317D01*
X157523910Y-92653441D01*
X157736110Y-92798431D01*
X157988000Y-92849440D01*
X159512000Y-92849440D01*
X159747317Y-92805162D01*
X159963441Y-92666090D01*
X160108431Y-92453890D01*
X160159440Y-92202000D01*
X160159440Y-90678000D01*
X161150560Y-90678000D01*
X161150560Y-92202000D01*
X161194838Y-92437317D01*
X161333910Y-92653441D01*
X161546110Y-92798431D01*
X161798000Y-92849440D01*
X163322000Y-92849440D01*
X163557317Y-92805162D01*
X163773441Y-92666090D01*
X163918431Y-92453890D01*
X163969440Y-92202000D01*
X163969440Y-91716661D01*
X166242758Y-91716661D01*
X166454990Y-92230303D01*
X166847630Y-92623629D01*
X167360900Y-92836757D01*
X167916661Y-92837242D01*
X168430303Y-92625010D01*
X168823629Y-92232370D01*
X169036757Y-91719100D01*
X169037242Y-91163339D01*
X168825010Y-90649697D01*
X168432370Y-90256371D01*
X167919100Y-90043243D01*
X167363339Y-90042758D01*
X166849697Y-90254990D01*
X166456371Y-90647630D01*
X166243243Y-91160900D01*
X166242758Y-91716661D01*
X163969440Y-91716661D01*
X163969440Y-90678000D01*
X163925162Y-90442683D01*
X163786090Y-90226559D01*
X163573890Y-90081569D01*
X163322000Y-90030560D01*
X161798000Y-90030560D01*
X161562683Y-90074838D01*
X161346559Y-90213910D01*
X161201569Y-90426110D01*
X161150560Y-90678000D01*
X160159440Y-90678000D01*
X160115162Y-90442683D01*
X159976090Y-90226559D01*
X159763890Y-90081569D01*
X159512000Y-90030560D01*
X157988000Y-90030560D01*
X157752683Y-90074838D01*
X157536559Y-90213910D01*
X157391569Y-90426110D01*
X157340560Y-90678000D01*
X157340560Y-90682516D01*
X157190213Y-90639392D01*
X156389605Y-91440000D01*
X156030395Y-91440000D01*
X155229787Y-90639392D01*
X154987603Y-90708857D01*
X154800856Y-91232302D01*
X153177062Y-91232302D01*
X153200608Y-91150213D01*
X152400000Y-90349605D01*
X151599392Y-91150213D01*
X148685250Y-91150213D01*
X148729440Y-90932000D01*
X148729440Y-89962302D01*
X150990856Y-89962302D01*
X151018638Y-90517368D01*
X151177603Y-90901143D01*
X151419787Y-90970608D01*
X152220395Y-90170000D01*
X152579605Y-90170000D01*
X153380213Y-90970608D01*
X153622397Y-90901143D01*
X153779857Y-90459787D01*
X155409392Y-90459787D01*
X156210000Y-91260395D01*
X157010608Y-90459787D01*
X156941143Y-90217603D01*
X156417698Y-90030856D01*
X155862632Y-90058638D01*
X155478857Y-90217603D01*
X155409392Y-90459787D01*
X153779857Y-90459787D01*
X153809144Y-90377698D01*
X153781362Y-89822632D01*
X153622397Y-89438857D01*
X153380213Y-89369392D01*
X152579605Y-90170000D01*
X152220395Y-90170000D01*
X151419787Y-89369392D01*
X151177603Y-89438857D01*
X150990856Y-89962302D01*
X148729440Y-89962302D01*
X148729440Y-89408000D01*
X148688381Y-89189787D01*
X151599392Y-89189787D01*
X152400000Y-89990395D01*
X153200608Y-89189787D01*
X153131143Y-88947603D01*
X152607698Y-88760856D01*
X152052632Y-88788638D01*
X151668857Y-88947603D01*
X151599392Y-89189787D01*
X148688381Y-89189787D01*
X148685162Y-89172683D01*
X148546090Y-88956559D01*
X148333890Y-88811569D01*
X148082000Y-88760560D01*
X146558000Y-88760560D01*
X146322683Y-88804838D01*
X146106559Y-88943910D01*
X145961569Y-89156110D01*
X145910560Y-89408000D01*
X110868626Y-89408000D01*
X110869374Y-88552433D01*
X110541378Y-87758623D01*
X109934572Y-87150756D01*
X109141336Y-86821376D01*
X108282433Y-86820626D01*
X107488623Y-87148622D01*
X107315000Y-87321942D01*
X107315000Y-86058000D01*
X111620560Y-86058000D01*
X111620560Y-87582000D01*
X111664838Y-87817317D01*
X111803910Y-88033441D01*
X112016110Y-88178431D01*
X112268000Y-88229440D01*
X113792000Y-88229440D01*
X114027317Y-88185162D01*
X114243441Y-88046090D01*
X114374007Y-87855000D01*
X121205995Y-87855000D01*
X121206000Y-87855001D01*
X121602077Y-87776215D01*
X121937856Y-87551856D01*
X122149498Y-87340213D01*
X153504392Y-87340213D01*
X153573857Y-87582397D01*
X154097302Y-87769144D01*
X154652368Y-87741362D01*
X155036143Y-87582397D01*
X155105608Y-87340213D01*
X154305000Y-86539605D01*
X153504392Y-87340213D01*
X122149498Y-87340213D01*
X123337409Y-86152302D01*
X152895856Y-86152302D01*
X152923638Y-86707368D01*
X153082603Y-87091143D01*
X153324787Y-87160608D01*
X154125395Y-86360000D01*
X154484605Y-86360000D01*
X155285213Y-87160608D01*
X155527397Y-87091143D01*
X155714144Y-86567698D01*
X155686362Y-86012632D01*
X155527397Y-85628857D01*
X155419817Y-85598000D01*
X161785560Y-85598000D01*
X161785560Y-87122000D01*
X161829838Y-87357317D01*
X161968910Y-87573441D01*
X162181110Y-87718431D01*
X162433000Y-87769440D01*
X163957000Y-87769440D01*
X164192317Y-87725162D01*
X164408441Y-87586090D01*
X164553431Y-87373890D01*
X164604440Y-87122000D01*
X164604440Y-85598000D01*
X164560162Y-85362683D01*
X164421090Y-85146559D01*
X164208890Y-85001569D01*
X163957000Y-84950560D01*
X162433000Y-84950560D01*
X162197683Y-84994838D01*
X161981559Y-85133910D01*
X161836569Y-85346110D01*
X161785560Y-85598000D01*
X155419817Y-85598000D01*
X155285213Y-85559392D01*
X154484605Y-86360000D01*
X154125395Y-86360000D01*
X153324787Y-85559392D01*
X153082603Y-85628857D01*
X152895856Y-86152302D01*
X123337409Y-86152302D01*
X124109924Y-85379787D01*
X153504392Y-85379787D01*
X154305000Y-86180395D01*
X155105608Y-85379787D01*
X155036143Y-85137603D01*
X154512698Y-84950856D01*
X153957632Y-84978638D01*
X153573857Y-85137603D01*
X153504392Y-85379787D01*
X124109924Y-85379787D01*
X126594498Y-82895213D01*
X128104392Y-82895213D01*
X128173857Y-83137397D01*
X128697302Y-83324144D01*
X129252368Y-83296362D01*
X129636143Y-83137397D01*
X129705608Y-82895213D01*
X128905000Y-82094605D01*
X128104392Y-82895213D01*
X126594498Y-82895213D01*
X126969853Y-82519858D01*
X126969856Y-82519856D01*
X127194215Y-82184077D01*
X127230109Y-82003629D01*
X127273001Y-81788000D01*
X127273000Y-81787995D01*
X127273000Y-81707302D01*
X127495856Y-81707302D01*
X127523638Y-82262368D01*
X127682603Y-82646143D01*
X127924787Y-82715608D01*
X128725395Y-81915000D01*
X129084605Y-81915000D01*
X129885213Y-82715608D01*
X130127397Y-82646143D01*
X130314144Y-82122698D01*
X130297392Y-81788000D01*
X131940560Y-81788000D01*
X131940560Y-83312000D01*
X131984838Y-83547317D01*
X132123910Y-83763441D01*
X132336110Y-83908431D01*
X132588000Y-83959440D01*
X134112000Y-83959440D01*
X134347317Y-83915162D01*
X134563441Y-83776090D01*
X134708431Y-83563890D01*
X134759440Y-83312000D01*
X134759440Y-81788000D01*
X135750560Y-81788000D01*
X135750560Y-83312000D01*
X135794838Y-83547317D01*
X135933910Y-83763441D01*
X136146110Y-83908431D01*
X136398000Y-83959440D01*
X137922000Y-83959440D01*
X138157317Y-83915162D01*
X138373441Y-83776090D01*
X138518431Y-83563890D01*
X138569440Y-83312000D01*
X138569440Y-81788000D01*
X139560560Y-81788000D01*
X139560560Y-83312000D01*
X139604838Y-83547317D01*
X139743910Y-83763441D01*
X139956110Y-83908431D01*
X140208000Y-83959440D01*
X141732000Y-83959440D01*
X141967317Y-83915162D01*
X142183441Y-83776090D01*
X142328431Y-83563890D01*
X142379440Y-83312000D01*
X142379440Y-81788000D01*
X143370560Y-81788000D01*
X143370560Y-83312000D01*
X143414838Y-83547317D01*
X143553910Y-83763441D01*
X143766110Y-83908431D01*
X144018000Y-83959440D01*
X145542000Y-83959440D01*
X145777317Y-83915162D01*
X145993441Y-83776090D01*
X146138431Y-83563890D01*
X146189440Y-83312000D01*
X146189440Y-81788000D01*
X146145162Y-81552683D01*
X146006090Y-81336559D01*
X145793890Y-81191569D01*
X145542000Y-81140560D01*
X144018000Y-81140560D01*
X143782683Y-81184838D01*
X143566559Y-81323910D01*
X143421569Y-81536110D01*
X143370560Y-81788000D01*
X142379440Y-81788000D01*
X142335162Y-81552683D01*
X142196090Y-81336559D01*
X141983890Y-81191569D01*
X141732000Y-81140560D01*
X140208000Y-81140560D01*
X139972683Y-81184838D01*
X139756559Y-81323910D01*
X139611569Y-81536110D01*
X139560560Y-81788000D01*
X138569440Y-81788000D01*
X138525162Y-81552683D01*
X138386090Y-81336559D01*
X138173890Y-81191569D01*
X137922000Y-81140560D01*
X136398000Y-81140560D01*
X136162683Y-81184838D01*
X135946559Y-81323910D01*
X135801569Y-81536110D01*
X135750560Y-81788000D01*
X134759440Y-81788000D01*
X134715162Y-81552683D01*
X134576090Y-81336559D01*
X134363890Y-81191569D01*
X134112000Y-81140560D01*
X132588000Y-81140560D01*
X132352683Y-81184838D01*
X132136559Y-81323910D01*
X131991569Y-81536110D01*
X131940560Y-81788000D01*
X130297392Y-81788000D01*
X130286362Y-81567632D01*
X130127397Y-81183857D01*
X129885213Y-81114392D01*
X129084605Y-81915000D01*
X128725395Y-81915000D01*
X127924787Y-81114392D01*
X127682603Y-81183857D01*
X127495856Y-81707302D01*
X127273000Y-81707302D01*
X127273000Y-78613000D01*
X127495560Y-78613000D01*
X127495560Y-80137000D01*
X127539838Y-80372317D01*
X127678910Y-80588441D01*
X127891110Y-80733431D01*
X128143000Y-80784440D01*
X128147516Y-80784440D01*
X128104392Y-80934787D01*
X128905000Y-81735395D01*
X129705608Y-80934787D01*
X129662484Y-80784440D01*
X129667000Y-80784440D01*
X129902317Y-80740162D01*
X130118441Y-80601090D01*
X130263431Y-80388890D01*
X130314440Y-80137000D01*
X130314440Y-78613000D01*
X130270162Y-78377683D01*
X130131090Y-78161559D01*
X129918890Y-78016569D01*
X129667000Y-77965560D01*
X128143000Y-77965560D01*
X127907683Y-78009838D01*
X127691559Y-78148910D01*
X127546569Y-78361110D01*
X127495560Y-78613000D01*
X127273000Y-78613000D01*
X127273000Y-77390712D01*
X128959271Y-75704440D01*
X129667000Y-75704440D01*
X129902317Y-75660162D01*
X130118441Y-75521090D01*
X130263431Y-75308890D01*
X130314440Y-75057000D01*
X130314440Y-73533000D01*
X130270162Y-73297683D01*
X130131090Y-73081559D01*
X129918890Y-72936569D01*
X129667000Y-72885560D01*
X129662484Y-72885560D01*
X129705608Y-72735213D01*
X129637056Y-72666661D01*
X131952758Y-72666661D01*
X132164990Y-73180303D01*
X132557630Y-73573629D01*
X133070900Y-73786757D01*
X133626661Y-73787242D01*
X134140303Y-73575010D01*
X134533629Y-73182370D01*
X134746757Y-72669100D01*
X134746759Y-72666661D01*
X135762758Y-72666661D01*
X135974990Y-73180303D01*
X136367630Y-73573629D01*
X136880900Y-73786757D01*
X137436661Y-73787242D01*
X137950303Y-73575010D01*
X138343629Y-73182370D01*
X138556757Y-72669100D01*
X138556759Y-72666661D01*
X139572758Y-72666661D01*
X139784990Y-73180303D01*
X140177630Y-73573629D01*
X140690900Y-73786757D01*
X141246661Y-73787242D01*
X141760303Y-73575010D01*
X142153629Y-73182370D01*
X142366757Y-72669100D01*
X142366759Y-72666661D01*
X143382758Y-72666661D01*
X143594990Y-73180303D01*
X143987630Y-73573629D01*
X144500900Y-73786757D01*
X145056661Y-73787242D01*
X145570303Y-73575010D01*
X145963629Y-73182370D01*
X146176757Y-72669100D01*
X146177242Y-72113339D01*
X145965010Y-71599697D01*
X145572370Y-71206371D01*
X145059100Y-70993243D01*
X144503339Y-70992758D01*
X143989697Y-71204990D01*
X143596371Y-71597630D01*
X143383243Y-72110900D01*
X143382758Y-72666661D01*
X142366759Y-72666661D01*
X142367242Y-72113339D01*
X142155010Y-71599697D01*
X141762370Y-71206371D01*
X141249100Y-70993243D01*
X140693339Y-70992758D01*
X140179697Y-71204990D01*
X139786371Y-71597630D01*
X139573243Y-72110900D01*
X139572758Y-72666661D01*
X138556759Y-72666661D01*
X138557242Y-72113339D01*
X138345010Y-71599697D01*
X137952370Y-71206371D01*
X137439100Y-70993243D01*
X136883339Y-70992758D01*
X136369697Y-71204990D01*
X135976371Y-71597630D01*
X135763243Y-72110900D01*
X135762758Y-72666661D01*
X134746759Y-72666661D01*
X134747242Y-72113339D01*
X134535010Y-71599697D01*
X134142370Y-71206371D01*
X133629100Y-70993243D01*
X133073339Y-70992758D01*
X132559697Y-71204990D01*
X132166371Y-71597630D01*
X131953243Y-72110900D01*
X131952758Y-72666661D01*
X129637056Y-72666661D01*
X128905000Y-71934605D01*
X128104392Y-72735213D01*
X128147516Y-72885560D01*
X128143000Y-72885560D01*
X127907683Y-72929838D01*
X127691559Y-73068910D01*
X127546569Y-73281110D01*
X127495560Y-73533000D01*
X127495560Y-74240729D01*
X125506144Y-76230144D01*
X125281785Y-76565923D01*
X125202999Y-76962000D01*
X125203000Y-76962005D01*
X125203000Y-81359289D01*
X120777288Y-85785000D01*
X114370914Y-85785000D01*
X114256090Y-85606559D01*
X114043890Y-85461569D01*
X113792000Y-85410560D01*
X112268000Y-85410560D01*
X112032683Y-85454838D01*
X111816559Y-85593910D01*
X111671569Y-85806110D01*
X111620560Y-86058000D01*
X107315000Y-86058000D01*
X107315000Y-84800213D01*
X112229392Y-84800213D01*
X112298857Y-85042397D01*
X112822302Y-85229144D01*
X113377368Y-85201362D01*
X113761143Y-85042397D01*
X113830608Y-84800213D01*
X113030000Y-83999605D01*
X112229392Y-84800213D01*
X107315000Y-84800213D01*
X107315000Y-83612302D01*
X111620856Y-83612302D01*
X111648638Y-84167368D01*
X111807603Y-84551143D01*
X112049787Y-84620608D01*
X112850395Y-83820000D01*
X113209605Y-83820000D01*
X114010213Y-84620608D01*
X114252397Y-84551143D01*
X114439144Y-84027698D01*
X114411362Y-83472632D01*
X114252397Y-83088857D01*
X114010213Y-83019392D01*
X113209605Y-83820000D01*
X112850395Y-83820000D01*
X112049787Y-83019392D01*
X111807603Y-83088857D01*
X111620856Y-83612302D01*
X107315000Y-83612302D01*
X107315000Y-82839787D01*
X112229392Y-82839787D01*
X113030000Y-83640395D01*
X113830608Y-82839787D01*
X113761143Y-82597603D01*
X113237698Y-82410856D01*
X112682632Y-82438638D01*
X112298857Y-82597603D01*
X112229392Y-82839787D01*
X107315000Y-82839787D01*
X107315000Y-81096661D01*
X111632758Y-81096661D01*
X111844990Y-81610303D01*
X112237630Y-82003629D01*
X112750900Y-82216757D01*
X113306661Y-82217242D01*
X113820303Y-82005010D01*
X114037692Y-81788000D01*
X119748560Y-81788000D01*
X119748560Y-83312000D01*
X119792838Y-83547317D01*
X119931910Y-83763441D01*
X120144110Y-83908431D01*
X120396000Y-83959440D01*
X121920000Y-83959440D01*
X122155317Y-83915162D01*
X122371441Y-83776090D01*
X122516431Y-83563890D01*
X122567440Y-83312000D01*
X122567440Y-81788000D01*
X122523162Y-81552683D01*
X122384090Y-81336559D01*
X122171890Y-81191569D01*
X121920000Y-81140560D01*
X120396000Y-81140560D01*
X120160683Y-81184838D01*
X119944559Y-81323910D01*
X119799569Y-81536110D01*
X119748560Y-81788000D01*
X114037692Y-81788000D01*
X114213629Y-81612370D01*
X114426757Y-81099100D01*
X114427242Y-80543339D01*
X114215010Y-80029697D01*
X113822370Y-79636371D01*
X113309100Y-79423243D01*
X112753339Y-79422758D01*
X112239697Y-79634990D01*
X111846371Y-80027630D01*
X111633243Y-80540900D01*
X111632758Y-81096661D01*
X107315000Y-81096661D01*
X107315000Y-80318518D01*
X107485428Y-80489244D01*
X108278664Y-80818624D01*
X109137567Y-80819374D01*
X109931377Y-80491378D01*
X110539244Y-79884572D01*
X110868624Y-79091336D01*
X110869183Y-78450213D01*
X120357392Y-78450213D01*
X120426857Y-78692397D01*
X120950302Y-78879144D01*
X121505368Y-78851362D01*
X121889143Y-78692397D01*
X121958608Y-78450213D01*
X121158000Y-77649605D01*
X120357392Y-78450213D01*
X110869183Y-78450213D01*
X110869374Y-78232433D01*
X110541378Y-77438623D01*
X110365365Y-77262302D01*
X119748856Y-77262302D01*
X119776638Y-77817368D01*
X119935603Y-78201143D01*
X120177787Y-78270608D01*
X120978395Y-77470000D01*
X121337605Y-77470000D01*
X122138213Y-78270608D01*
X122380397Y-78201143D01*
X122567144Y-77677698D01*
X122539362Y-77122632D01*
X122380397Y-76738857D01*
X122138213Y-76669392D01*
X121337605Y-77470000D01*
X120978395Y-77470000D01*
X120177787Y-76669392D01*
X119935603Y-76738857D01*
X119748856Y-77262302D01*
X110365365Y-77262302D01*
X109934572Y-76830756D01*
X109141336Y-76501376D01*
X108282433Y-76500626D01*
X107488623Y-76828622D01*
X107315000Y-77001942D01*
X107315000Y-76489787D01*
X120357392Y-76489787D01*
X121158000Y-77290395D01*
X121958608Y-76489787D01*
X121889143Y-76247603D01*
X121365698Y-76060856D01*
X120810632Y-76088638D01*
X120426857Y-76247603D01*
X120357392Y-76489787D01*
X107315000Y-76489787D01*
X107315000Y-71547302D01*
X127495856Y-71547302D01*
X127523638Y-72102368D01*
X127682603Y-72486143D01*
X127924787Y-72555608D01*
X128725395Y-71755000D01*
X129084605Y-71755000D01*
X129885213Y-72555608D01*
X130127397Y-72486143D01*
X130314144Y-71962698D01*
X130286362Y-71407632D01*
X130127397Y-71023857D01*
X129885213Y-70954392D01*
X129084605Y-71755000D01*
X128725395Y-71755000D01*
X127924787Y-70954392D01*
X127682603Y-71023857D01*
X127495856Y-71547302D01*
X107315000Y-71547302D01*
X107315000Y-70774787D01*
X128104392Y-70774787D01*
X128905000Y-71575395D01*
X129705608Y-70774787D01*
X129636143Y-70532603D01*
X129112698Y-70345856D01*
X128557632Y-70373638D01*
X128173857Y-70532603D01*
X128104392Y-70774787D01*
X107315000Y-70774787D01*
X107315000Y-70088518D01*
X107485428Y-70259244D01*
X108278664Y-70588624D01*
X109137567Y-70589374D01*
X109931377Y-70261378D01*
X110539244Y-69654572D01*
X110842099Y-68925213D01*
X121754392Y-68925213D01*
X121823857Y-69167397D01*
X122347302Y-69354144D01*
X122902368Y-69326362D01*
X123286143Y-69167397D01*
X123355608Y-68925213D01*
X124294392Y-68925213D01*
X124363857Y-69167397D01*
X124887302Y-69354144D01*
X125442368Y-69326362D01*
X125826143Y-69167397D01*
X125895608Y-68925213D01*
X126834392Y-68925213D01*
X126903857Y-69167397D01*
X127427302Y-69354144D01*
X127982368Y-69326362D01*
X128366143Y-69167397D01*
X128435608Y-68925213D01*
X129374392Y-68925213D01*
X129443857Y-69167397D01*
X129967302Y-69354144D01*
X130522368Y-69326362D01*
X130906143Y-69167397D01*
X130975608Y-68925213D01*
X130175000Y-68124605D01*
X129374392Y-68925213D01*
X128435608Y-68925213D01*
X127635000Y-68124605D01*
X126834392Y-68925213D01*
X125895608Y-68925213D01*
X125095000Y-68124605D01*
X124294392Y-68925213D01*
X123355608Y-68925213D01*
X122555000Y-68124605D01*
X121754392Y-68925213D01*
X110842099Y-68925213D01*
X110868624Y-68861336D01*
X110869374Y-68002433D01*
X110759824Y-67737302D01*
X121145856Y-67737302D01*
X121173638Y-68292368D01*
X121332603Y-68676143D01*
X121574787Y-68745608D01*
X122375395Y-67945000D01*
X122734605Y-67945000D01*
X123535213Y-68745608D01*
X123777397Y-68676143D01*
X123821453Y-68552656D01*
X123872603Y-68676143D01*
X124114787Y-68745608D01*
X124915395Y-67945000D01*
X125274605Y-67945000D01*
X126075213Y-68745608D01*
X126317397Y-68676143D01*
X126361453Y-68552656D01*
X126412603Y-68676143D01*
X126654787Y-68745608D01*
X127455395Y-67945000D01*
X127814605Y-67945000D01*
X128615213Y-68745608D01*
X128857397Y-68676143D01*
X128901453Y-68552656D01*
X128952603Y-68676143D01*
X129194787Y-68745608D01*
X129995395Y-67945000D01*
X130354605Y-67945000D01*
X131155213Y-68745608D01*
X131397397Y-68676143D01*
X131447509Y-68535682D01*
X131529990Y-68735303D01*
X131922630Y-69128629D01*
X132435900Y-69341757D01*
X132991661Y-69342242D01*
X133505303Y-69130010D01*
X133898629Y-68737370D01*
X133984949Y-68529488D01*
X134069990Y-68735303D01*
X134462630Y-69128629D01*
X134975900Y-69341757D01*
X135531661Y-69342242D01*
X136045303Y-69130010D01*
X136438629Y-68737370D01*
X136524949Y-68529488D01*
X136609990Y-68735303D01*
X137002630Y-69128629D01*
X137515900Y-69341757D01*
X138071661Y-69342242D01*
X138585303Y-69130010D01*
X138978629Y-68737370D01*
X139064949Y-68529488D01*
X139149990Y-68735303D01*
X139542630Y-69128629D01*
X140055900Y-69341757D01*
X140611661Y-69342242D01*
X141125303Y-69130010D01*
X141518629Y-68737370D01*
X141731757Y-68224100D01*
X141732242Y-67668339D01*
X141520010Y-67154697D01*
X141127370Y-66761371D01*
X140614100Y-66548243D01*
X140058339Y-66547758D01*
X139544697Y-66759990D01*
X139151371Y-67152630D01*
X139065051Y-67360512D01*
X138980010Y-67154697D01*
X138587370Y-66761371D01*
X138074100Y-66548243D01*
X137518339Y-66547758D01*
X137004697Y-66759990D01*
X136611371Y-67152630D01*
X136525051Y-67360512D01*
X136440010Y-67154697D01*
X136047370Y-66761371D01*
X135534100Y-66548243D01*
X134978339Y-66547758D01*
X134464697Y-66759990D01*
X134071371Y-67152630D01*
X133985051Y-67360512D01*
X133900010Y-67154697D01*
X133507370Y-66761371D01*
X132994100Y-66548243D01*
X132438339Y-66547758D01*
X131924697Y-66759990D01*
X131531371Y-67152630D01*
X131451605Y-67344727D01*
X131397397Y-67213857D01*
X131155213Y-67144392D01*
X130354605Y-67945000D01*
X129995395Y-67945000D01*
X129194787Y-67144392D01*
X128952603Y-67213857D01*
X128908547Y-67337344D01*
X128857397Y-67213857D01*
X128615213Y-67144392D01*
X127814605Y-67945000D01*
X127455395Y-67945000D01*
X126654787Y-67144392D01*
X126412603Y-67213857D01*
X126368547Y-67337344D01*
X126317397Y-67213857D01*
X126075213Y-67144392D01*
X125274605Y-67945000D01*
X124915395Y-67945000D01*
X124114787Y-67144392D01*
X123872603Y-67213857D01*
X123828547Y-67337344D01*
X123777397Y-67213857D01*
X123535213Y-67144392D01*
X122734605Y-67945000D01*
X122375395Y-67945000D01*
X121574787Y-67144392D01*
X121332603Y-67213857D01*
X121145856Y-67737302D01*
X110759824Y-67737302D01*
X110541378Y-67208623D01*
X109934572Y-66600756D01*
X109141336Y-66271376D01*
X108282433Y-66270626D01*
X107488623Y-66598622D01*
X107315000Y-66771942D01*
X107315000Y-65508000D01*
X111620560Y-65508000D01*
X111620560Y-67032000D01*
X111664838Y-67267317D01*
X111803910Y-67483441D01*
X112016110Y-67628431D01*
X112268000Y-67679440D01*
X113792000Y-67679440D01*
X114027317Y-67635162D01*
X114243441Y-67496090D01*
X114388431Y-67283890D01*
X114439440Y-67032000D01*
X114439440Y-66546661D01*
X114632758Y-66546661D01*
X114844990Y-67060303D01*
X115237630Y-67453629D01*
X115750900Y-67666757D01*
X116306661Y-67667242D01*
X116820303Y-67455010D01*
X117213629Y-67062370D01*
X117254148Y-66964787D01*
X121754392Y-66964787D01*
X122555000Y-67765395D01*
X123355608Y-66964787D01*
X124294392Y-66964787D01*
X125095000Y-67765395D01*
X125895608Y-66964787D01*
X126834392Y-66964787D01*
X127635000Y-67765395D01*
X128435608Y-66964787D01*
X129374392Y-66964787D01*
X130175000Y-67765395D01*
X130975608Y-66964787D01*
X130906143Y-66722603D01*
X130382698Y-66535856D01*
X129827632Y-66563638D01*
X129443857Y-66722603D01*
X129374392Y-66964787D01*
X128435608Y-66964787D01*
X128366143Y-66722603D01*
X127842698Y-66535856D01*
X127287632Y-66563638D01*
X126903857Y-66722603D01*
X126834392Y-66964787D01*
X125895608Y-66964787D01*
X125826143Y-66722603D01*
X125302698Y-66535856D01*
X124747632Y-66563638D01*
X124363857Y-66722603D01*
X124294392Y-66964787D01*
X123355608Y-66964787D01*
X123286143Y-66722603D01*
X122762698Y-66535856D01*
X122207632Y-66563638D01*
X121823857Y-66722603D01*
X121754392Y-66964787D01*
X117254148Y-66964787D01*
X117426757Y-66549100D01*
X117427242Y-65993339D01*
X117215010Y-65479697D01*
X116822370Y-65086371D01*
X116309100Y-64873243D01*
X115753339Y-64872758D01*
X115239697Y-65084990D01*
X114846371Y-65477630D01*
X114633243Y-65990900D01*
X114632758Y-66546661D01*
X114439440Y-66546661D01*
X114439440Y-65508000D01*
X114395162Y-65272683D01*
X114256090Y-65056559D01*
X114043890Y-64911569D01*
X113792000Y-64860560D01*
X112268000Y-64860560D01*
X112032683Y-64904838D01*
X111816559Y-65043910D01*
X111671569Y-65256110D01*
X111620560Y-65508000D01*
X107315000Y-65508000D01*
X107315000Y-63546661D01*
X111632758Y-63546661D01*
X111844990Y-64060303D01*
X112237630Y-64453629D01*
X112750900Y-64666757D01*
X113306661Y-64667242D01*
X113820303Y-64455010D01*
X114213629Y-64062370D01*
X114426757Y-63549100D01*
X114426759Y-63546661D01*
X114632758Y-63546661D01*
X114844990Y-64060303D01*
X115237630Y-64453629D01*
X115750900Y-64666757D01*
X116306661Y-64667242D01*
X116820303Y-64455010D01*
X116970575Y-64305000D01*
X127483995Y-64305000D01*
X127484000Y-64305001D01*
X127880077Y-64226215D01*
X128215856Y-64001856D01*
X135606316Y-56611395D01*
X136045303Y-56430010D01*
X136438629Y-56037370D01*
X136524949Y-55829488D01*
X136609990Y-56035303D01*
X137002630Y-56428629D01*
X137515900Y-56641757D01*
X138071661Y-56642242D01*
X138585303Y-56430010D01*
X138938000Y-56077928D01*
X138938000Y-56133309D01*
X139034673Y-56366698D01*
X139213301Y-56545327D01*
X139446690Y-56642000D01*
X140049250Y-56642000D01*
X140208000Y-56483250D01*
X140208000Y-55372000D01*
X140462000Y-55372000D01*
X140462000Y-56483250D01*
X140620750Y-56642000D01*
X141223310Y-56642000D01*
X141456699Y-56545327D01*
X141635327Y-56366698D01*
X141732000Y-56133309D01*
X141732000Y-55530750D01*
X141573250Y-55372000D01*
X140462000Y-55372000D01*
X140208000Y-55372000D01*
X140188000Y-55372000D01*
X140188000Y-55118000D01*
X140208000Y-55118000D01*
X140208000Y-54006750D01*
X140462000Y-54006750D01*
X140462000Y-55118000D01*
X141573250Y-55118000D01*
X141732000Y-54959250D01*
X141732000Y-54356691D01*
X141635327Y-54123302D01*
X141456699Y-53944673D01*
X141223310Y-53848000D01*
X140620750Y-53848000D01*
X140462000Y-54006750D01*
X140208000Y-54006750D01*
X140049250Y-53848000D01*
X139446690Y-53848000D01*
X139213301Y-53944673D01*
X139034673Y-54123302D01*
X138938000Y-54356691D01*
X138938000Y-54412614D01*
X138587370Y-54061371D01*
X138074100Y-53848243D01*
X137518339Y-53847758D01*
X137004697Y-54059990D01*
X136611371Y-54452630D01*
X136525051Y-54660512D01*
X136440010Y-54454697D01*
X136047370Y-54061371D01*
X135534100Y-53848243D01*
X134978339Y-53847758D01*
X134464697Y-54059990D01*
X134071371Y-54452630D01*
X133985051Y-54660512D01*
X133900010Y-54454697D01*
X133507370Y-54061371D01*
X132994100Y-53848243D01*
X132438339Y-53847758D01*
X131924697Y-54059990D01*
X131531371Y-54452630D01*
X131445051Y-54660512D01*
X131360010Y-54454697D01*
X130967370Y-54061371D01*
X130454100Y-53848243D01*
X129898339Y-53847758D01*
X129384697Y-54059990D01*
X128991371Y-54452630D01*
X128905051Y-54660512D01*
X128820010Y-54454697D01*
X128427370Y-54061371D01*
X127914100Y-53848243D01*
X127358339Y-53847758D01*
X126844697Y-54059990D01*
X126451371Y-54452630D01*
X126371605Y-54644727D01*
X126317397Y-54513857D01*
X126075213Y-54444392D01*
X125274605Y-55245000D01*
X126075213Y-56045608D01*
X126317397Y-55976143D01*
X126367509Y-55835682D01*
X126449990Y-56035303D01*
X126842630Y-56428629D01*
X127355900Y-56641757D01*
X127911661Y-56642242D01*
X128425303Y-56430010D01*
X128818629Y-56037370D01*
X128904949Y-55829488D01*
X128989990Y-56035303D01*
X129382630Y-56428629D01*
X129895900Y-56641757D01*
X130451661Y-56642242D01*
X130965303Y-56430010D01*
X131358629Y-56037370D01*
X131444949Y-55829488D01*
X131529990Y-56035303D01*
X131922630Y-56428629D01*
X132435900Y-56641757D01*
X132648346Y-56641942D01*
X127055288Y-62235000D01*
X116970740Y-62235000D01*
X116822370Y-62086371D01*
X116309100Y-61873243D01*
X115753339Y-61872758D01*
X115239697Y-62084990D01*
X114846371Y-62477630D01*
X114633243Y-62990900D01*
X114632758Y-63546661D01*
X114426759Y-63546661D01*
X114427242Y-62993339D01*
X114215010Y-62479697D01*
X113822370Y-62086371D01*
X113309100Y-61873243D01*
X112753339Y-61872758D01*
X112239697Y-62084990D01*
X111846371Y-62477630D01*
X111633243Y-62990900D01*
X111632758Y-63546661D01*
X107315000Y-63546661D01*
X107315000Y-62768518D01*
X107485428Y-62939244D01*
X108278664Y-63268624D01*
X109137567Y-63269374D01*
X109931377Y-62941378D01*
X110539244Y-62334572D01*
X110868624Y-61541336D01*
X110869374Y-60682433D01*
X110541378Y-59888623D01*
X109934572Y-59280756D01*
X109141336Y-58951376D01*
X108282433Y-58950626D01*
X107488623Y-59278622D01*
X107315000Y-59451942D01*
X107315000Y-56388000D01*
X115430560Y-56388000D01*
X115430560Y-57912000D01*
X115474838Y-58147317D01*
X115613910Y-58363441D01*
X115826110Y-58508431D01*
X116078000Y-58559440D01*
X117602000Y-58559440D01*
X117837317Y-58515162D01*
X118053441Y-58376090D01*
X118198431Y-58163890D01*
X118249440Y-57912000D01*
X118249440Y-56388000D01*
X118205162Y-56152683D01*
X118066090Y-55936559D01*
X117853890Y-55791569D01*
X117602000Y-55740560D01*
X117597484Y-55740560D01*
X117640608Y-55590213D01*
X117572056Y-55521661D01*
X121157758Y-55521661D01*
X121369990Y-56035303D01*
X121762630Y-56428629D01*
X122275900Y-56641757D01*
X122831661Y-56642242D01*
X123345303Y-56430010D01*
X123550457Y-56225213D01*
X124294392Y-56225213D01*
X124363857Y-56467397D01*
X124887302Y-56654144D01*
X125442368Y-56626362D01*
X125826143Y-56467397D01*
X125895608Y-56225213D01*
X125095000Y-55424605D01*
X124294392Y-56225213D01*
X123550457Y-56225213D01*
X123738629Y-56037370D01*
X123818395Y-55845273D01*
X123872603Y-55976143D01*
X124114787Y-56045608D01*
X124915395Y-55245000D01*
X124114787Y-54444392D01*
X123872603Y-54513857D01*
X123822491Y-54654318D01*
X123740010Y-54454697D01*
X123550432Y-54264787D01*
X124294392Y-54264787D01*
X125095000Y-55065395D01*
X125895608Y-54264787D01*
X125826143Y-54022603D01*
X125302698Y-53835856D01*
X124747632Y-53863638D01*
X124363857Y-54022603D01*
X124294392Y-54264787D01*
X123550432Y-54264787D01*
X123347370Y-54061371D01*
X122834100Y-53848243D01*
X122278339Y-53847758D01*
X121764697Y-54059990D01*
X121371371Y-54452630D01*
X121158243Y-54965900D01*
X121157758Y-55521661D01*
X117572056Y-55521661D01*
X116840000Y-54789605D01*
X116039392Y-55590213D01*
X116082516Y-55740560D01*
X116078000Y-55740560D01*
X115842683Y-55784838D01*
X115626559Y-55923910D01*
X115481569Y-56136110D01*
X115430560Y-56388000D01*
X107315000Y-56388000D01*
X107315000Y-54402302D01*
X115430856Y-54402302D01*
X115458638Y-54957368D01*
X115617603Y-55341143D01*
X115859787Y-55410608D01*
X116660395Y-54610000D01*
X117019605Y-54610000D01*
X117820213Y-55410608D01*
X118062397Y-55341143D01*
X118249144Y-54817698D01*
X118221362Y-54262632D01*
X118062397Y-53878857D01*
X117820213Y-53809392D01*
X117019605Y-54610000D01*
X116660395Y-54610000D01*
X115859787Y-53809392D01*
X115617603Y-53878857D01*
X115430856Y-54402302D01*
X107315000Y-54402302D01*
X107315000Y-53629787D01*
X116039392Y-53629787D01*
X116840000Y-54430395D01*
X117640608Y-53629787D01*
X117571143Y-53387603D01*
X117047698Y-53200856D01*
X116492632Y-53228638D01*
X116108857Y-53387603D01*
X116039392Y-53629787D01*
X107315000Y-53629787D01*
X107315000Y-44577000D01*
X232029000Y-44577000D01*
X232029000Y-117983000D01*
M02*
