G04 #@! TF.FileFunction,Soldermask,Bot*
%FSLAX46Y46*%
G04 Gerber Fmt 4.6, Leading zero omitted, Abs format (unit mm)*
G04 Created by KiCad (PCBNEW 4.0.4-stable) date 07/19/17 07:42:17*
%MOMM*%
%LPD*%
G01*
G04 APERTURE LIST*
%ADD10C,0.100000*%
%ADD11R,1.924000X1.924000*%
%ADD12C,1.924000*%
%ADD13C,3.448000*%
%ADD14O,3.900000X3.900000*%
%ADD15O,2.686000X2.178000*%
%ADD16R,2.686000X2.178000*%
%ADD17R,2.432000X2.432000*%
%ADD18C,2.432000*%
%ADD19C,0.254000*%
G04 APERTURE END LIST*
D10*
D11*
X113030000Y-86820000D03*
D12*
X113030000Y-80820000D03*
D13*
X108710000Y-88980000D03*
X108710000Y-78660000D03*
D12*
X113030000Y-83820000D03*
D11*
X113030000Y-66270000D03*
D12*
X113030000Y-63270000D03*
D13*
X108710000Y-68430000D03*
X108710000Y-61110000D03*
D12*
X116030000Y-66270000D03*
X116030000Y-63270000D03*
D11*
X113030000Y-104370000D03*
D12*
X113030000Y-101370000D03*
D13*
X108710000Y-106530000D03*
X108710000Y-99210000D03*
D14*
X170965000Y-100330000D03*
D15*
X153670000Y-97790000D03*
X153670000Y-100330000D03*
D16*
X153670000Y-102870000D03*
D11*
X163195000Y-86360000D03*
D12*
X154305000Y-86360000D03*
D11*
X139700000Y-104775000D03*
D12*
X139700000Y-95885000D03*
X123190000Y-100330000D03*
D11*
X123190000Y-97790000D03*
D12*
X116840000Y-54610000D03*
D11*
X116840000Y-57150000D03*
X144780000Y-102870000D03*
D12*
X144780000Y-97790000D03*
D11*
X147320000Y-90170000D03*
D12*
X152400000Y-90170000D03*
X156210000Y-91440000D03*
D11*
X158750000Y-91440000D03*
D12*
X128905000Y-81915000D03*
D11*
X128905000Y-79375000D03*
D12*
X128905000Y-71755000D03*
D11*
X128905000Y-74295000D03*
X121158000Y-82550000D03*
D12*
X121158000Y-77470000D03*
D17*
X128270000Y-92710000D03*
D18*
X128270000Y-107950000D03*
D17*
X134620000Y-107950000D03*
D18*
X134620000Y-92710000D03*
D11*
X149860000Y-105410000D03*
D12*
X149860000Y-95250000D03*
D11*
X162560000Y-91440000D03*
D12*
X167640000Y-91440000D03*
D11*
X119380000Y-95250000D03*
D12*
X119380000Y-102870000D03*
D11*
X144780000Y-82550000D03*
D12*
X144780000Y-72390000D03*
D11*
X140970000Y-82550000D03*
D12*
X140970000Y-72390000D03*
D11*
X137160000Y-82550000D03*
D12*
X137160000Y-72390000D03*
D11*
X133350000Y-82550000D03*
D12*
X133350000Y-72390000D03*
D11*
X140335000Y-55245000D03*
D12*
X140335000Y-67945000D03*
X132715000Y-55245000D03*
X135255000Y-55245000D03*
X137795000Y-55245000D03*
X132715000Y-67945000D03*
X135255000Y-67945000D03*
X137795000Y-67945000D03*
X130175000Y-67945000D03*
X127635000Y-67945000D03*
X125095000Y-67945000D03*
X130175000Y-55245000D03*
X127635000Y-55245000D03*
X125095000Y-55245000D03*
X122555000Y-55245000D03*
X122555000Y-67945000D03*
D19*
G36*
X174117000Y-105791000D02*
X157607000Y-105791000D01*
X157607000Y-94869000D01*
X174117000Y-94869000D01*
X174117000Y-105791000D01*
X174117000Y-105791000D01*
G37*
X174117000Y-105791000D02*
X157607000Y-105791000D01*
X157607000Y-94869000D01*
X174117000Y-94869000D01*
X174117000Y-105791000D01*
M02*
